# This file uses centimeters as units for non-parametric coordinates.

mtllib SM_DoorFrame_001.mtl
g default
v -4.647326 230.055374 81.330376
v -4.647326 -0.792809 81.330376
v 4.647083 230.055374 81.330376
v 4.647083 -0.792809 81.330376
v 4.647083 230.055374 69.195168
v 4.647083 -0.792809 69.195168
v -4.647326 230.055374 69.195168
v -4.647326 -0.792809 69.195168
v -4.647329 230.062744 81.330376
v -4.647329 230.062744 -81.330360
v 4.647141 230.062744 81.330376
v 4.647141 230.062744 -81.330360
v 4.647141 242.197937 81.330376
v 4.647141 242.197937 -81.330360
v -4.647329 242.197937 81.330376
v -4.647329 242.197937 -81.330360
v 9.466446 247.941956 89.481606
v 9.466446 247.941956 -89.481598
v -9.466445 247.941956 -89.481598
v -9.466445 247.941956 89.481606
v 9.466446 250.638184 89.481606
v 9.466446 250.638184 -89.481598
v -9.466445 250.638184 -89.481598
v -9.466445 250.638184 89.481606
v 12.148697 247.941956 92.163788
v 12.148697 247.941956 -92.163788
v 12.148697 250.638184 -92.163788
v 12.148697 250.638184 92.163788
v -12.148696 247.941956 -92.163788
v -12.148696 250.638184 -92.163788
v -12.148696 247.941956 92.163788
v -12.148696 250.638184 92.163788
v -4.647329 232.383331 -81.330360
v -4.647329 232.383331 81.330376
v 4.647141 232.383331 81.330376
v 4.647141 232.383331 -81.330360
v -5.925835 232.383331 -82.608871
v -5.925835 232.383331 82.608887
v -5.925835 230.062744 -82.608871
v -5.925835 230.062744 82.608887
v 5.925674 232.383331 82.608887
v 5.925674 230.062744 82.608887
v 5.925674 230.062744 -82.608871
v 5.925674 232.383331 -82.608871
v 3.954084 232.383331 80.637314
v 3.954084 232.383331 -80.637306
v 3.954084 242.197937 -80.637306
v 3.954084 242.197937 80.637314
v -3.954273 242.197937 80.637314
v -3.954273 242.197937 -80.637306
v -3.954273 232.383331 -80.637306
v -3.954273 232.383331 80.637314
v -7.729209 246.089920 -84.633957
v -6.576588 244.733231 -82.534302
v -5.072491 242.772568 -81.457191
v 5.072437 242.772614 -81.457191
v 6.576534 244.733246 -82.534302
v 7.729209 246.089920 -84.633957
v 5.072437 242.772614 81.457207
v 6.576534 244.733246 82.534309
v 7.729209 246.089920 84.633980
v -5.072491 242.772568 81.457199
v -6.576588 244.733231 82.534302
v -7.729209 246.089920 84.633965
v -4.647326 230.055374 -69.195137
v -4.647326 -0.792809 -69.195137
v 4.647083 230.055374 -69.195137
v 4.647083 -0.792809 -69.195137
v 4.647083 230.055374 -81.330345
v 4.647083 -0.792809 -81.330345
v -4.647326 230.055374 -81.330345
v -4.647326 -0.792809 -81.330345
vt 1.000000 0.040051
vt 1.000000 0.801946
vt 0.969325 0.040051
vt 0.969325 0.801946
vt 0.929273 0.040051
vt 0.929273 0.801946
vt 0.898598 0.040051
vt 0.898598 0.801946
vt 0.858547 0.040051
vt 0.858547 0.801946
vt 1.000000 0.841997
vt 0.969325 0.841997
vt 1.000000 0.000000
vt 0.969325 0.000000
vt 0.000000 0.346677
vt 0.000000 0.173338
vt 0.173338 0.173338
vt 0.173338 0.346677
vt 0.260007 0.346677
vt 0.260007 0.173338
vt 0.346677 0.173338
vt 0.346677 0.346677
vt 0.346677 0.346677
vt 0.346677 0.173338
vt 0.520015 0.173338
vt 0.520015 0.346677
vt 0.520015 0.346677
vt 0.520015 0.173338
vt 0.606684 0.173338
vt 0.606684 0.346677
vt 0.173338 0.086669
vt 0.000000 0.086669
vt 0.000000 0.000000
vt 0.173338 0.000000
vt 0.000000 0.520015
vt 0.000000 0.433346
vt 0.173338 0.433346
vt 0.173338 0.520015
vt 0.346677 0.346677
vt 0.346677 0.173338
vt 0.346677 0.173338
vt 0.346677 0.346677
vt 0.520015 0.173338
vt 0.520015 0.173338
vt 0.520015 0.346677
vt 0.520015 0.346677
vt 0.346677 0.346677
vt 0.346677 0.173338
vt 0.520015 0.173338
vt 0.520015 0.346677
vt 0.606684 0.346677
vt 0.606684 0.173338
vt 0.693353 0.173338
vt 0.693353 0.346677
vt 0.173338 0.433346
vt 0.000000 0.433346
vt 0.000000 0.346677
vt 0.173338 0.346677
vt 0.173338 0.173338
vt 0.260007 0.173338
vt 0.260007 0.346677
vt 0.000000 0.173338
vt 0.000000 0.086669
vt 0.173338 0.086669
vt 0.606684 0.346677
vt 0.606684 0.173338
vt 0.693353 0.173338
vt 0.693353 0.346677
vt 0.173338 0.433346
vt 0.000000 0.433346
vt 0.260007 0.173338
vt 0.260007 0.346677
vt 0.000000 0.086669
vt 0.173338 0.086669
vt 0.346677 0.173338
vt 0.346677 0.346677
vt 0.520015 0.346677
vt 0.520015 0.173338
vt 0.000000 0.000000
vt 0.173338 0.000000
vt 0.173338 0.520015
vt 0.000000 0.520015
vt 0.520015 0.173338
vt 0.520015 0.173338
vt 0.346677 0.173338
vt 0.346677 0.173338
vt 0.520015 0.173338
vt 0.346677 0.173338
vt 0.346677 0.346677
vt 0.520015 0.346677
vt 0.346677 0.346677
vt 0.520015 0.346677
vt 0.346677 0.346677
vt 0.520015 0.346677
vt 0.846612 0.040051
vt 0.846612 0.801946
vt 0.815937 0.801946
vt 0.815937 0.040051
vt 0.775885 0.801946
vt 0.775885 0.040051
vt 0.745210 0.801946
vt 0.745210 0.040051
vt 0.705159 0.801946
vt 0.705159 0.040051
vt 0.846612 0.841997
vt 0.815937 0.841997
vt 0.846612 0.000000
vt 0.815937 0.000000
vn 0.000000 0.000000 1.000000
vn 0.000000 0.000000 1.000000
vn 0.000000 0.000000 1.000000
vn 0.000000 0.000000 1.000000
vn 1.000000 0.000000 0.000000
vn 1.000000 0.000000 0.000000
vn 1.000000 0.000000 0.000000
vn 1.000000 0.000000 0.000000
vn 0.000000 0.000000 -1.000000
vn 0.000000 0.000000 -1.000000
vn 0.000000 0.000000 -1.000000
vn 0.000000 0.000000 -1.000000
vn -1.000000 0.000000 0.000000
vn -1.000000 0.000000 0.000000
vn -1.000000 0.000000 0.000000
vn -1.000000 0.000000 0.000000
vn 0.000000 -1.000000 0.000000
vn 0.000000 -1.000000 0.000000
vn 0.000000 -1.000000 0.000000
vn 0.000000 -1.000000 0.000000
vn 0.000000 1.000000 0.000000
vn 0.000000 1.000000 0.000000
vn 0.000000 1.000000 0.000000
vn 0.000000 1.000000 0.000000
vn 0.000000 -1.000000 0.000000
vn 0.000000 -1.000000 0.000000
vn 0.000000 -1.000000 0.000000
vn 0.000000 -1.000000 0.000000
vn 1.000000 0.000000 0.000000
vn 1.000000 0.000000 0.000000
vn 1.000000 0.000000 0.000000
vn 1.000000 0.000000 0.000000
vn 0.000000 1.000000 0.000000
vn 0.000000 1.000000 -0.000000
vn 0.000000 1.000000 -0.000000
vn 0.000000 1.000000 0.000000
vn -1.000000 0.000000 0.000000
vn -1.000000 0.000000 0.000000
vn -1.000000 0.000000 0.000000
vn -1.000000 0.000000 0.000000
vn 0.000000 0.000000 -1.000000
vn 0.000000 0.000000 -1.000000
vn 0.000000 0.000000 -1.000000
vn 0.000000 0.000000 -1.000000
vn 0.000000 0.000000 1.000000
vn 0.000000 0.000000 1.000000
vn 0.000000 0.000000 1.000000
vn 0.000000 0.000000 1.000000
vn 1.000000 0.000000 0.000000
vn 1.000000 0.000000 0.000000
vn 1.000000 0.000000 0.000000
vn 1.000000 0.000000 0.000000
vn 0.000000 0.000000 -1.000000
vn 0.000000 0.000000 -1.000000
vn 0.000000 0.000000 -1.000000
vn 0.000000 0.000000 -1.000000
vn -1.000000 0.000000 0.000000
vn -1.000000 0.000000 0.000000
vn -1.000000 0.000000 0.000000
vn -1.000000 0.000000 0.000000
vn 0.000000 0.000000 1.000000
vn 0.000000 0.000000 1.000000
vn 0.000000 0.000000 1.000000
vn 0.000000 0.000000 1.000000
vn -0.000000 -0.999591 0.028605
vn 0.000000 -0.999591 -0.028606
vn 0.000000 -1.000000 0.000000
vn 0.000000 -1.000000 -0.000000
vn 0.000000 1.000000 0.000000
vn 0.000000 1.000000 -0.000000
vn 0.000000 -0.999591 -0.028606
vn 0.000000 -1.000000 0.000000
vn 0.000000 1.000000 -0.000000
vn -0.000000 -0.999591 0.028605
vn 0.000000 -1.000000 -0.000000
vn 0.000000 1.000000 0.000000
vn -1.000000 0.000000 0.000000
vn -1.000000 0.000000 0.000000
vn -1.000000 0.000000 0.000000
vn -1.000000 0.000000 0.000000
vn 0.000000 0.000000 1.000000
vn 0.000000 0.000000 1.000000
vn 0.000000 0.000000 1.000000
vn 0.000000 0.000000 1.000000
vn 1.000000 0.000000 0.000000
vn 1.000000 0.000000 0.000000
vn 1.000000 0.000000 0.000000
vn 1.000000 0.000000 0.000000
vn 0.000000 0.000000 -1.000000
vn 0.000000 0.000000 -1.000000
vn 0.000000 0.000000 -1.000000
vn 0.000000 0.000000 -1.000000
vn 0.000000 1.000000 -0.000000
vn 0.000000 1.000000 0.000000
vn 0.000000 1.000000 -0.000000
vn 0.000000 1.000000 0.000000
vn 0.000000 -1.000000 0.000000
vn 0.000000 -1.000000 0.000000
vn 0.000000 1.000000 -0.000000
vn 0.000000 1.000000 0.000000
vn 0.000000 -1.000000 0.000000
vn 0.000000 -1.000000 0.000000
vn 0.000000 1.000000 0.000000
vn 0.000000 1.000000 -0.000000
vn 0.000000 1.000000 0.000001
vn 0.000000 1.000000 -0.000001
vn 0.000000 -1.000000 -0.000000
vn 0.000000 -1.000000 -0.000001
vn 0.000000 -1.000000 -0.000001
vn 0.000000 -1.000000 -0.000000
vn 0.000000 -1.000000 -0.000001
vn 0.000000 -1.000000 -0.000000
vn 0.000000 -1.000000 -0.000000
vn 0.000000 -1.000000 -0.000001
vn 0.000000 1.000000 -0.000001
vn 0.000000 1.000000 0.000001
vn 0.000001 -0.459690 -0.888079
vn 0.000001 -0.763742 -0.645522
vn 0.000001 -0.763743 -0.645520
vn 0.000001 -0.459693 -0.888078
vn 0.000000 -0.918974 -0.394317
vn 0.000000 -0.918975 -0.394317
vn 0.803818 -0.594876 0.000000
vn 0.803818 -0.594876 0.000000
vn 0.795187 -0.606365 0.000000
vn 0.795187 -0.606365 0.000000
vn 0.000000 -0.215523 -0.976499
vn 0.000000 -0.215523 -0.976499
vn -0.803885 -0.594785 0.000000
vn -0.803885 -0.594785 0.000000
vn -0.795202 -0.606345 0.000000
vn -0.795202 -0.606345 0.000000
vn -0.000001 -0.215517 0.976500
vn -0.000001 -0.215517 0.976500
vn 0.000001 -0.459690 0.888080
vn 0.000001 -0.459687 0.888081
vn 0.734409 -0.678707 0.000000
vn 0.734409 -0.678707 0.000000
vn 0.729350 -0.684141 0.000000
vn 0.729350 -0.684141 0.000000
vn -0.000000 -0.918976 0.394315
vn -0.000000 -0.918976 0.394314
vn -0.734412 -0.678704 0.000000
vn -0.734412 -0.678704 0.000000
vn -0.729350 -0.684141 0.000000
vn -0.729350 -0.684141 0.000000
vn 0.774628 -0.632417 0.000000
vn 0.774628 -0.632417 0.000000
vn 0.000000 -0.763745 0.645518
vn 0.000000 -0.763744 0.645520
vn -0.774641 -0.632401 0.000000
vn -0.774641 -0.632401 0.000000
vn 0.000000 0.000000 1.000000
vn 0.000000 0.000000 1.000000
vn 0.000000 0.000000 1.000000
vn 0.000000 0.000000 1.000000
vn 1.000000 0.000000 0.000000
vn 1.000000 0.000000 0.000000
vn 1.000000 0.000000 0.000000
vn 1.000000 0.000000 0.000000
vn 0.000000 0.000000 -1.000000
vn 0.000000 0.000000 -1.000000
vn 0.000000 0.000000 -1.000000
vn 0.000000 0.000000 -1.000000
vn -1.000000 0.000000 0.000000
vn -1.000000 0.000000 0.000000
vn -1.000000 0.000000 0.000000
vn -1.000000 0.000000 0.000000
vn 0.000000 -1.000000 0.000000
vn 0.000000 -1.000000 0.000000
vn 0.000000 -1.000000 0.000000
vn 0.000000 -1.000000 0.000000
vn 0.000000 1.000000 0.000000
vn 0.000000 1.000000 0.000000
vn 0.000000 1.000000 0.000000
vn 0.000000 1.000000 0.000000
s off
g group44_pCube87
usemtl lambert3SG
f 1/1/1 2/2/2 4/4/3 3/3/4
f 3/3/5 4/4/6 6/6/7 5/5/8
f 5/5/9 6/6/10 8/8/11 7/7/12
f 7/7/13 8/8/14 2/10/15 1/9/16
f 2/2/17 8/11/18 6/12/19 4/4/20
f 7/13/21 1/1/22 3/3/23 5/14/24
s 1
f 9/15/25 10/16/26 12/17/27 11/18/28
s off
f 45/19/29 46/20/30 47/21/31 48/22/32
s 2
f 21/23/33 22/24/34 23/25/35 24/26/36
s off
f 49/27/37 50/28/38 51/29/39 52/30/40
f 46/31/41 51/32/42 50/33/43 47/34/44
f 49/35/45 52/36/46 45/37/47 48/38/48
f 25/39/49 26/40/50 27/41/51 28/42/52
f 26/40/53 29/43/54 30/44/55 27/41/56
f 29/43/57 31/45/58 32/46/59 30/44/60
f 31/45/61 25/39/62 28/42/63 32/46/64
s 3
f 17/47/65 18/48/66 26/40/67 25/39/68
s 2
f 22/24/34 21/23/33 28/42/69 27/41/70
s 3
f 18/48/66 19/49/71 29/43/72 26/40/67
s 2
f 23/25/35 22/24/34 27/41/70 30/44/73
s 3
f 19/49/71 20/50/74 31/45/75 29/43/72
s 2
f 24/26/36 23/25/35 30/44/73 32/46/76
s 3
f 20/50/74 17/47/65 25/39/68 31/45/75
s 2
f 21/23/33 24/26/36 32/46/76 28/42/69
s off
f 38/51/77 37/52/78 39/53/79 40/54/80
f 41/55/81 38/56/82 40/57/83 42/58/84
f 42/58/85 43/59/86 44/60/87 41/61/88
f 39/62/89 37/63/90 44/64/91 43/59/92
s 4
f 34/65/93 33/66/94 37/52/95 38/51/96
s 1
f 10/67/26 9/68/25 40/54/97 39/53/98
s 4
f 35/69/99 34/70/93 38/56/96 41/55/100
s 1
f 9/15/25 11/18/28 42/58/101 40/57/97
f 11/18/28 12/17/27 43/59/102 42/58/101
s 4
f 36/71/103 35/72/99 41/61/100 44/60/104
f 33/73/94 36/74/103 44/64/104 37/63/95
s 1
f 12/17/27 10/16/26 39/62/98 43/59/102
s 4
f 35/72/99 36/71/103 46/20/105 45/19/106
s 5
f 14/75/107 13/76/108 48/22/109 47/21/110
f 15/77/111 16/78/112 50/28/113 49/27/114
s 4
f 33/66/94 34/65/93 52/30/115 51/29/116
f 36/74/103 33/73/94 51/32/116 46/31/105
s 5
f 16/79/112 14/80/107 47/34/110 50/33/113
s 4
f 34/70/93 35/69/99 45/37/106 52/36/115
s 5
f 13/81/108 15/82/111 49/35/114 48/38/109
s 3
f 55/83/117 54/84/118 57/85/119 56/86/120
f 54/84/118 53/87/121 58/88/122 57/85/119
s 7
f 13/76/123 14/75/124 56/86/125 59/89/126
s 3
f 14/75/127 16/78/128 55/83/117 56/86/120
s 8
f 16/78/129 15/77/130 62/90/131 55/83/132
s 3
f 15/77/133 13/76/134 59/89/135 62/90/136
f 58/88/122 53/87/121 19/49/71 18/48/66
s 7
f 61/91/137 58/88/138 18/48/139 17/47/140
s 3
f 64/92/141 61/91/142 17/47/65 20/50/74
s 8
f 53/87/143 64/92/144 20/50/145 19/49/146
s 7
f 56/86/125 57/85/147 60/93/148 59/89/126
f 57/85/147 58/88/138 61/91/137 60/93/148
s 3
f 59/89/135 60/93/149 63/94/150 62/90/136
f 60/93/149 61/91/142 64/92/141 63/94/150
s 8
f 53/87/143 54/84/151 63/94/152 64/92/144
f 54/84/151 55/83/132 62/90/131 63/94/152
s off
f 65/95/153 66/96/154 68/97/155 67/98/156
f 67/98/157 68/97/158 70/99/159 69/100/160
f 69/100/161 70/99/162 72/101/163 71/102/164
f 71/102/165 72/101/166 66/103/167 65/104/168
f 66/96/169 72/105/170 70/106/171 68/97/172
f 71/107/173 65/95/174 67/98/175 69/108/176
