# This file uses centimeters as units for non-parametric coordinates.

mtllib SM_DeskDrawerSmall_001.mtl
g default
v 14.456017 0.105157 -23.925987
v -14.376798 0.105157 -23.925987
v 14.456017 7.922808 -23.925987
v -14.376798 7.922808 -23.925987
v 14.456017 7.922808 27.532322
v -14.376798 7.922808 27.532322
v 14.456017 0.105157 27.532322
v -14.376798 0.105157 27.532322
v 13.015437 7.922808 -22.485405
v -12.936220 7.922808 -22.485405
v -12.936220 7.922808 26.091743
v 13.015437 7.922808 26.091743
v 13.015437 0.922795 -22.485405
v -12.936220 0.922795 -22.485405
v -12.936220 0.922795 26.091743
v 13.015437 0.922795 26.091743
v -5.431549 4.833399 -24.246515
v -5.431549 3.969355 -24.246515
v -6.157135 4.833399 -24.246515
v -6.157135 3.969355 -24.246515
v 5.330093 4.833399 -24.258463
v 5.330093 3.969355 -24.258463
v 6.151237 3.969355 -24.258463
v 6.151237 4.833399 -24.258463
v 3.583290 3.969355 -26.558470
v 3.915146 3.969355 -26.521517
v 4.230728 3.969355 -26.412474
v 4.514595 3.969355 -26.236677
v 4.752838 3.969355 -26.002741
v 4.933807 3.969355 -25.722128
v 5.048584 3.969355 -25.408583
v 3.969948 3.969355 -27.337034
v 4.297333 3.969355 -27.302954
v 4.610672 3.969355 -27.202169
v 4.896545 3.969355 -27.039003
v 5.142685 3.969355 -26.820459
v 5.338501 3.969355 -26.555902
v 5.475655 3.969355 -26.256681
v -3.665459 3.969355 -26.558470
v -3.996811 3.969355 -26.521811
v -4.312180 3.969355 -26.413599
v -4.596237 3.969355 -26.239077
v -4.835289 3.969355 -26.006678
v -5.017738 3.969355 -25.727644
v -5.134811 3.969355 -25.415476
v -4.036911 3.969355 -27.337034
v -4.365395 3.969355 -27.302225
v -4.679283 3.969355 -27.199347
v -4.964607 3.969355 -27.032965
v -5.208755 3.969355 -26.810472
v -5.400871 3.969355 -26.541754
v -5.532356 3.969355 -26.238745
v 3.969948 4.833399 -27.337034
v 4.297333 4.833399 -27.302954
v 4.610672 4.833399 -27.202169
v 4.896545 4.833399 -27.039003
v 5.142685 4.833399 -26.820459
v 5.338501 4.833399 -26.555902
v 5.475655 4.833399 -26.256681
v -4.036911 4.833399 -27.337034
v -4.365395 4.833399 -27.302225
v -4.679283 4.833399 -27.199347
v -4.964607 4.833399 -27.032965
v -5.208755 4.833399 -26.810472
v -5.400871 4.833399 -26.541754
v -5.532356 4.833399 -26.238745
v 3.583290 4.833399 -26.558470
v 3.915146 4.833399 -26.521517
v 4.230728 4.833399 -26.412474
v 4.514595 4.833399 -26.236677
v 4.752838 4.833399 -26.002741
v 4.933807 4.833399 -25.722128
v 5.048584 4.833399 -25.408583
v -3.665459 4.833399 -26.558470
v -3.996811 4.833399 -26.521811
v -4.312180 4.833399 -26.413599
v -4.596237 4.833399 -26.239077
v -4.835289 4.833399 -26.006678
v -5.017738 4.833399 -25.727644
v -5.134811 4.833399 -25.415476
v -4.864700 3.523009 -23.879068
v -6.470444 3.523009 -23.879068
v -4.864700 3.523009 -24.239557
v -6.470444 3.523009 -24.239557
v -4.864700 5.257205 -24.239557
v -6.470444 5.257205 -24.239557
v -4.864700 5.257205 -23.879068
v -6.470444 5.257205 -23.879068
v 6.563667 3.523009 -23.879068
v 4.957932 3.523009 -23.879068
v 6.563667 3.523009 -24.239557
v 4.957932 3.523009 -24.239557
v 6.563667 5.257205 -24.239557
v 4.957932 5.257205 -24.239557
v 6.563667 5.257205 -23.879068
v 4.957932 5.257205 -23.879068
vt 0.923007 0.666375
vt 0.508952 0.442418
vt 0.508952 0.000000
vt 0.972966 0.000000
vt 0.972966 0.442418
vt 0.491535 0.000000
vt 0.000000 0.000000
vt 0.000000 0.491535
vt 0.491535 0.491535
vt 0.923007 0.459348
vt 0.576265 0.459348
vt 0.715980 0.459348
vt 0.783292 0.459348
vt 0.491535 0.508465
vt 0.491535 1.000000
vt 0.477775 0.975441
vt 0.477775 0.533024
vt 0.000000 1.000000
vt 0.013761 0.975441
vt 0.000000 0.508465
vt 0.013761 0.533024
vt 0.090396 0.549953
vt 0.407282 0.549953
vt 0.407282 0.737723
vt 0.090396 0.737723
vt 0.278165 0.549953
vt 0.278165 0.737723
vt 0.219513 0.549953
vt 0.219513 0.737723
vt 0.031743 0.549953
vt 0.031743 0.737723
vt 0.783292 0.666375
vt 0.715980 0.666375
vt 0.576265 0.666375
vt 0.508952 0.666375
vt 0.508952 0.459348
vt 0.944698 0.474740
vt 0.944660 0.518219
vt 0.940663 0.520444
vt 0.940705 0.472417
vt 0.959178 0.569385
vt 0.944418 0.569385
vt 0.944418 0.550103
vt 0.959178 0.550103
vt 0.424346 0.610709
vt 0.424303 0.562683
vt 0.428301 0.564907
vt 0.428339 0.608387
vt 0.958001 0.586315
vt 0.943630 0.586315
vt 0.943630 0.604203
vt 0.958001 0.604203
vt 0.941882 0.604203
vt 0.941882 0.586315
vt 0.940663 0.586315
vt 0.940663 0.604203
vt 0.434159 0.556089
vt 0.429932 0.553708
vt 0.440152 0.549951
vt 0.440156 0.554303
vt 0.942668 0.550103
vt 0.942668 0.569385
vt 0.940663 0.569385
vt 0.940663 0.550103
vt 0.946291 0.529419
vt 0.950518 0.527038
vt 0.956515 0.528823
vt 0.956511 0.533175
vt 0.959748 0.586315
vt 0.959748 0.604203
vt 0.960948 0.604203
vt 0.960948 0.586315
vt 0.950607 0.465956
vt 0.946257 0.463390
vt 0.956515 0.459347
vt 0.956511 0.464272
vt 0.960935 0.569385
vt 0.960935 0.550103
vt 0.962954 0.550103
vt 0.962954 0.569385
vt 0.429898 0.619736
vt 0.434248 0.617171
vt 0.440152 0.618854
vt 0.440156 0.623779
vt 0.959390 0.604203
vt 0.959390 0.586315
vt 0.959047 0.604203
vt 0.959047 0.586315
vt 0.958726 0.604203
vt 0.958726 0.586315
vt 0.958436 0.604203
vt 0.958436 0.586315
vt 0.958189 0.604203
vt 0.958189 0.586315
vt 0.948997 0.466643
vt 0.944721 0.464212
vt 0.947556 0.467727
vt 0.943362 0.465385
vt 0.946355 0.469155
vt 0.942239 0.466860
vt 0.945451 0.470857
vt 0.941401 0.468574
vt 0.944890 0.472749
vt 0.940882 0.470453
vt 0.948916 0.526334
vt 0.944737 0.528629
vt 0.947486 0.525239
vt 0.943359 0.527475
vt 0.946294 0.523804
vt 0.942218 0.526010
vt 0.945400 0.522099
vt 0.941366 0.524298
vt 0.944846 0.520207
vt 0.940840 0.522414
vt 0.943020 0.569385
vt 0.943020 0.550103
vt 0.943359 0.569385
vt 0.943359 0.550103
vt 0.943677 0.569385
vt 0.943677 0.550103
vt 0.943967 0.569385
vt 0.943967 0.550103
vt 0.944218 0.569385
vt 0.944218 0.550103
vt 0.960583 0.569385
vt 0.960583 0.550103
vt 0.960244 0.569385
vt 0.960244 0.550103
vt 0.959925 0.569385
vt 0.959925 0.550103
vt 0.959634 0.569385
vt 0.959634 0.550103
vt 0.959381 0.569385
vt 0.959381 0.550103
vt 0.428377 0.554498
vt 0.432557 0.556792
vt 0.426999 0.555651
vt 0.431126 0.557888
vt 0.425859 0.557117
vt 0.429935 0.559323
vt 0.425007 0.558829
vt 0.429041 0.561027
vt 0.424480 0.560712
vt 0.428487 0.562920
vt 0.428362 0.618915
vt 0.432638 0.616484
vt 0.427003 0.617741
vt 0.431197 0.615399
vt 0.425880 0.616266
vt 0.429995 0.613971
vt 0.425041 0.614552
vt 0.429092 0.612269
vt 0.424522 0.612673
vt 0.428531 0.610377
vt 0.942240 0.604203
vt 0.942240 0.586315
vt 0.942583 0.604203
vt 0.942583 0.586315
vt 0.942904 0.604203
vt 0.942904 0.586315
vt 0.943194 0.604203
vt 0.943194 0.586315
vt 0.943441 0.604203
vt 0.943441 0.586315
vt 0.999054 0.459348
vt 0.999054 0.465745
vt 0.992656 0.465745
vt 0.992656 0.459348
vt 0.986259 0.465745
vt 0.986259 0.459348
vt 0.979861 0.465745
vt 0.979861 0.459348
vt 0.973464 0.465745
vt 0.973464 0.459348
vt 0.999054 0.472142
vt 0.992656 0.472142
vt 0.999054 0.452950
vt 0.992656 0.452950
vt 0.968174 0.495498
vt 0.968174 0.489100
vt 0.974571 0.489100
vt 0.974571 0.495498
vt 0.980968 0.489100
vt 0.980968 0.495498
vt 0.987366 0.489100
vt 0.987366 0.495498
vt 0.993763 0.489100
vt 0.993763 0.495498
vt 0.968174 0.482703
vt 0.974571 0.482703
vt 0.968174 0.501895
vt 0.974571 0.501895
vn 0.000000 0.000000 -1.000000
vn 0.000000 0.000000 -1.000000
vn 0.000000 0.000000 -1.000000
vn 0.000000 0.000000 -1.000000
vn 0.000000 1.000000 0.000000
vn 0.000000 1.000000 0.000000
vn 0.000000 1.000000 0.000000
vn 0.000000 1.000000 0.000000
vn 0.000000 0.000000 1.000000
vn 0.000000 0.000000 1.000000
vn 0.000000 0.000000 1.000000
vn 0.000000 0.000000 1.000000
vn 0.000000 -1.000000 0.000000
vn 0.000000 -1.000000 0.000000
vn 0.000000 -1.000000 0.000000
vn 0.000000 -1.000000 0.000000
vn -1.000000 0.000000 0.000000
vn -1.000000 0.000000 0.000000
vn -1.000000 0.000000 0.000000
vn -1.000000 0.000000 0.000000
vn 1.000000 0.000000 0.000000
vn 1.000000 0.000000 0.000000
vn 1.000000 0.000000 0.000000
vn 1.000000 0.000000 0.000000
vn 0.000000 1.000000 -0.000000
vn 0.000000 1.000000 -0.000000
vn 0.000000 1.000000 -0.000000
vn 0.000000 1.000000 -0.000000
vn 0.000000 1.000000 0.000000
vn 0.000000 1.000000 0.000000
vn 0.000000 1.000000 0.000000
vn 0.000000 1.000000 0.000000
vn 0.000000 0.000000 1.000000
vn 0.000000 0.000000 1.000000
vn 0.000000 0.000000 1.000000
vn 0.000000 0.000000 1.000000
vn 1.000000 0.000000 0.000000
vn 1.000000 0.000000 0.000000
vn 1.000000 0.000000 0.000000
vn 1.000000 0.000000 0.000000
vn 0.000000 0.000000 -1.000000
vn 0.000000 0.000000 -1.000000
vn 0.000000 0.000000 -1.000000
vn 0.000000 0.000000 -1.000000
vn -1.000000 0.000000 0.000000
vn -1.000000 0.000000 0.000000
vn -1.000000 0.000000 0.000000
vn -1.000000 0.000000 0.000000
vn 0.000000 -1.000000 -0.000000
vn 0.000000 -1.000000 -0.000000
vn 0.000000 -1.000000 -0.000000
vn 0.000000 -1.000000 -0.000000
vn 0.004089 0.000000 -0.999992
vn -0.004176 0.000000 -0.999991
vn -0.004176 0.000000 -0.999991
vn 0.004089 0.000000 -0.999992
vn 0.000000 1.000000 -0.000000
vn 0.000000 1.000000 -0.000000
vn 0.000000 1.000000 -0.000000
vn 0.000000 1.000000 -0.000000
vn -0.004875 0.000000 0.999988
vn 0.004836 0.000000 0.999988
vn 0.004836 0.000000 0.999988
vn -0.004875 0.000000 0.999988
vn 0.963117 0.000000 0.269084
vn 0.963117 0.000000 0.269084
vn 0.969259 0.000000 0.246044
vn 0.969259 0.000000 0.246044
vn 0.000000 1.000000 0.000000
vn 0.000000 1.000000 0.000000
vn 0.000000 1.000000 0.000000
vn 0.000000 1.000000 0.000000
vn -0.949772 0.000000 -0.312943
vn -0.949772 0.000000 -0.312943
vn -0.954179 0.000000 -0.299238
vn -0.954179 0.000000 -0.299238
vn 0.000000 -1.000000 -0.000000
vn 0.000000 -1.000000 -0.000000
vn 0.000000 -1.000000 0.000000
vn 0.000000 -1.000000 0.000000
vn -0.965247 0.000000 0.261340
vn -0.965247 0.000000 0.261340
vn -0.971327 0.000000 0.237747
vn -0.971327 0.000000 0.237747
vn 0.000000 -1.000000 -0.000000
vn 0.000000 -1.000000 -0.000000
vn 0.000000 -1.000000 -0.000000
vn 0.000000 -1.000000 -0.000000
vn 0.942749 0.000000 -0.333504
vn 0.942749 0.000000 -0.333504
vn 0.947322 0.000000 -0.320282
vn 0.947322 0.000000 -0.320282
vn 0.000000 1.000000 0.000000
vn 0.000000 1.000000 0.000000
vn 0.000000 1.000000 0.000000
vn 0.000000 1.000000 0.000000
vn -0.895230 0.000000 0.445605
vn -0.895230 0.000000 0.445605
vn -0.775272 0.000000 0.631628
vn -0.775272 0.000000 0.631628
vn -0.617359 0.000000 0.786682
vn -0.617359 0.000000 0.786682
vn -0.429180 0.000000 0.903219
vn -0.429180 0.000000 0.903219
vn -0.219973 0.000000 0.975506
vn -0.219973 0.000000 0.975506
vn 0.000000 -1.000000 0.000000
vn 0.000000 -1.000000 0.000000
vn 0.000000 -1.000000 0.000000
vn 0.000000 -1.000000 0.000000
vn 0.000000 -1.000000 0.000000
vn 0.000000 -1.000000 0.000000
vn 0.000000 -1.000000 0.000000
vn 0.000000 -1.000000 0.000000
vn 0.000000 -1.000000 -0.000000
vn 0.000000 -1.000000 -0.000000
vn 0.000000 -1.000000 -0.000000
vn 0.000000 -1.000000 0.000000
vn 0.000000 -1.000000 0.000000
vn 0.000000 -1.000000 0.000000
vn 0.000000 -1.000000 0.000000
vn 0.000000 -1.000000 0.000000
vn 0.000000 -1.000000 0.000000
vn 0.000000 -1.000000 0.000000
vn 0.000000 -1.000000 0.000000
vn 0.000000 -1.000000 0.000000
vn -0.870270 0.000000 -0.492576
vn -0.870270 0.000000 -0.492576
vn -0.747687 0.000000 -0.664052
vn -0.747687 0.000000 -0.664052
vn -0.591952 0.000000 -0.805973
vn -0.591952 0.000000 -0.805973
vn -0.409876 0.000000 -0.912141
vn -0.409876 0.000000 -0.912141
vn -0.209580 0.000000 -0.977791
vn -0.209580 0.000000 -0.977791
vn 0.861042 0.000000 -0.508535
vn 0.861042 0.000000 -0.508535
vn 0.737829 0.000000 -0.674987
vn 0.737829 0.000000 -0.674987
vn 0.582955 0.000000 -0.812504
vn 0.582955 0.000000 -0.812504
vn 0.403117 0.000000 -0.915149
vn 0.403117 0.000000 -0.915149
vn 0.205975 0.000000 -0.978557
vn 0.205975 0.000000 -0.978557
vn 0.000000 1.000000 0.000000
vn 0.000000 1.000000 0.000000
vn 0.000000 1.000000 -0.000000
vn 0.000000 1.000000 0.000000
vn 0.000000 1.000000 -0.000000
vn 0.000000 1.000000 -0.000000
vn 0.000000 1.000000 0.000000
vn 0.000000 1.000000 0.000000
vn 0.000000 1.000000 0.000000
vn 0.000000 1.000000 0.000000
vn 0.000000 1.000000 0.000000
vn 0.000000 1.000000 0.000000
vn 0.000000 1.000000 0.000000
vn 0.000000 1.000000 0.000000
vn 0.000000 1.000000 0.000000
vn 0.000000 1.000000 0.000000
vn 0.000000 1.000000 -0.000000
vn 0.000000 1.000000 -0.000000
vn 0.000000 1.000000 -0.000000
vn 0.000000 1.000000 0.000000
vn 0.892048 0.000000 0.451941
vn 0.892048 0.000000 0.451941
vn 0.771692 0.000000 0.635996
vn 0.771692 0.000000 0.635996
vn 0.613996 0.000000 0.789309
vn 0.613996 0.000000 0.789309
vn 0.426599 0.000000 0.904441
vn 0.426599 0.000000 0.904441
vn 0.218589 0.000000 0.975817
vn 0.218589 0.000000 0.975817
vn 0.000000 -1.000000 0.000000
vn 0.000000 -1.000000 0.000000
vn 0.000000 -1.000000 0.000000
vn 0.000000 -1.000000 0.000000
vn 0.000000 0.000000 -1.000000
vn 0.000000 0.000000 -1.000000
vn 0.000000 0.000000 -1.000000
vn 0.000000 0.000000 -1.000000
vn 0.000000 1.000000 0.000000
vn 0.000000 1.000000 0.000000
vn 0.000000 1.000000 0.000000
vn 0.000000 1.000000 0.000000
vn 0.000000 0.000000 1.000000
vn 0.000000 0.000000 1.000000
vn 0.000000 0.000000 1.000000
vn 0.000000 0.000000 1.000000
vn -1.000000 0.000000 0.000000
vn -1.000000 0.000000 0.000000
vn -1.000000 0.000000 0.000000
vn -1.000000 0.000000 0.000000
vn 1.000000 0.000000 0.000000
vn 1.000000 0.000000 0.000000
vn 1.000000 0.000000 0.000000
vn 1.000000 0.000000 0.000000
vn 0.000000 -1.000000 0.000000
vn 0.000000 -1.000000 0.000000
vn 0.000000 -1.000000 0.000000
vn 0.000000 -1.000000 0.000000
vn 0.000000 0.000000 -1.000000
vn 0.000000 0.000000 -1.000000
vn 0.000000 0.000000 -1.000000
vn 0.000000 0.000000 -1.000000
vn 0.000000 1.000000 0.000000
vn 0.000000 1.000000 0.000000
vn 0.000000 1.000000 0.000000
vn 0.000000 1.000000 0.000000
vn 0.000000 0.000000 1.000000
vn 0.000000 0.000000 1.000000
vn 0.000000 0.000000 1.000000
vn 0.000000 0.000000 1.000000
vn -1.000000 0.000000 0.000000
vn -1.000000 0.000000 0.000000
vn -1.000000 0.000000 0.000000
vn -1.000000 0.000000 0.000000
vn 1.000000 0.000000 0.000000
vn 1.000000 0.000000 0.000000
vn 1.000000 0.000000 0.000000
vn 1.000000 0.000000 0.000000
s off
g pCube25
usemtl lambert2SG
f 1/34/1 2/35/2 4/36/3 3/11/4
f 13/2/5 14/3/6 15/4/7 16/5/8
f 5/12/9 6/13/10 8/32/11 7/33/12
f 7/6/13 8/7/14 2/8/15 1/9/16
f 2/1/17 8/32/18 6/13/19 4/10/20
f 7/33/21 1/34/22 3/11/23 5/12/24
s 1
f 3/14/25 4/15/26 10/16/27 9/17/28
f 4/15/26 6/18/29 11/19/30 10/16/27
f 6/18/29 5/20/31 12/21/32 11/19/30
f 5/20/31 3/14/25 9/17/28 12/21/32
s off
f 9/22/33 10/30/34 14/31/35 13/25/36
f 10/23/37 11/26/38 15/27/39 14/24/40
f 11/26/41 12/28/42 16/29/43 15/27/44
f 12/28/45 9/22/46 13/25/47 16/29/48
s 2
usemtl blinn1SG
f 25/37/49 39/38/50 46/39/51 32/40/52
s 3
f 32/41/53 46/42/54 60/43/55 53/44/56
s 4
f 53/45/57 60/46/58 74/47/59 67/48/60
s 5
f 67/49/61 74/50/62 39/51/63 25/52/64
f 45/53/65 80/54/66 17/55/67 18/56/68
s 4
f 80/57/69 66/58/70 19/59/71 17/60/72
s 3
f 66/61/73 52/62/74 20/63/75 19/64/76
s 2
f 52/65/77 45/66/78 18/67/79 20/68/80
s 5
f 73/69/81 31/70/82 22/71/83 21/72/84
s 2
f 31/73/85 38/74/86 23/75/87 22/76/88
s 3
f 38/77/89 59/78/90 24/79/91 23/80/92
s 4
f 59/81/93 73/82/94 21/83/95 24/84/96
s 5
f 30/85/97 31/70/82 73/69/81 72/86/98
f 29/87/99 30/85/97 72/86/98 71/88/100
f 28/89/101 29/87/99 71/88/100 70/90/102
f 27/91/103 28/89/101 70/90/102 69/92/104
f 25/52/64 26/93/105 68/94/106 67/49/61
f 26/93/105 27/91/103 69/92/104 68/94/106
s 2
f 31/73/85 30/95/107 37/96/108 38/74/86
f 30/95/107 29/97/109 36/98/110 37/96/108
f 29/97/109 28/99/111 35/100/112 36/98/110
f 28/99/111 27/101/113 34/102/114 35/100/112
f 27/101/113 26/103/115 33/104/116 34/102/114
f 26/103/115 25/37/49 32/40/52 33/104/116
f 44/105/117 45/66/78 52/65/77 51/106/118
f 43/107/119 44/105/117 51/106/118 50/108/120
f 42/109/121 43/107/119 50/108/120 49/110/122
f 41/111/123 42/109/121 49/110/122 48/112/124
f 39/38/50 40/113/125 47/114/126 46/39/51
f 40/113/125 41/111/123 48/112/124 47/114/126
s 3
f 51/115/127 52/62/74 66/61/73 65/116/128
f 50/117/129 51/115/127 65/116/128 64/118/130
f 49/119/131 50/117/129 64/118/130 63/120/132
f 48/121/133 49/119/131 63/120/132 62/122/134
f 46/42/54 47/123/135 61/124/136 60/43/55
f 47/123/135 48/121/133 62/122/134 61/124/136
f 38/77/89 37/125/137 58/126/138 59/78/90
f 37/125/137 36/127/139 57/128/140 58/126/138
f 36/127/139 35/129/141 56/130/142 57/128/140
f 35/129/141 34/131/143 55/132/144 56/130/142
f 34/131/143 33/133/145 54/134/146 55/132/144
f 33/133/145 32/41/53 53/44/56 54/134/146
s 4
f 65/135/147 66/58/70 80/57/69 79/136/148
f 64/137/149 65/135/147 79/136/148 78/138/150
f 63/139/151 64/137/149 78/138/150 77/140/152
f 62/141/153 63/139/151 77/140/152 76/142/154
f 60/46/58 61/143/155 75/144/156 74/47/59
f 61/143/155 62/141/153 76/142/154 75/144/156
f 59/81/93 58/145/157 72/146/158 73/82/94
f 58/145/157 57/147/159 71/148/160 72/146/158
f 57/147/159 56/149/161 70/150/162 71/148/160
f 56/149/161 55/151/163 69/152/164 70/150/162
f 55/151/163 54/153/165 68/154/166 69/152/164
f 54/153/165 53/45/57 67/48/60 68/154/166
s 5
f 45/53/65 44/155/167 79/156/168 80/54/66
f 44/155/167 43/157/169 78/158/170 79/156/168
f 43/157/169 42/159/171 77/160/172 78/158/170
f 42/159/171 41/161/173 76/162/174 77/160/172
f 41/161/173 40/163/175 75/164/176 76/162/174
f 40/163/175 39/51/63 74/50/62 75/164/176
s off
f 81/165/177 82/166/178 84/167/179 83/168/180
f 83/168/181 84/167/182 86/169/183 85/170/184
f 85/170/185 86/169/186 88/171/187 87/172/188
f 87/172/189 88/171/190 82/173/191 81/174/192
f 82/166/193 88/175/194 86/176/195 84/167/196
f 87/177/197 81/165/198 83/168/199 85/178/200
f 89/179/201 90/180/202 92/181/203 91/182/204
f 91/182/205 92/181/206 94/183/207 93/184/208
f 93/184/209 94/183/210 96/185/211 95/186/212
f 95/186/213 96/185/214 90/187/215 89/188/216
f 90/180/217 96/189/218 94/190/219 92/181/220
f 95/191/221 89/179/222 91/182/223 93/192/224
