# This file uses centimeters as units for non-parametric coordinates.

mtllib SM_FileCabinetWide_001.mtl
g default
v 65.631378 2.832008 32.927488
v -64.375550 2.832008 32.927488
v -64.375550 44.490223 32.927488
v 65.631378 44.490223 32.927488
v -64.375550 46.517017 32.927488
v 65.631378 46.517017 32.927488
v -64.375550 89.743240 32.927488
v 65.631378 89.743240 32.927488
v -66.369385 5.250641 -30.346316
v -66.369385 5.250641 29.653684
v -66.369385 40.503632 29.653684
v -66.369385 40.503632 -30.346316
v 67.625183 40.503632 -30.346316
v 67.625183 40.503632 29.653684
v 67.625183 5.250641 29.653684
v 67.625183 5.250641 -30.346316
v 67.625183 89.284576 -30.346316
v 67.625183 89.284576 29.653684
v 67.625183 50.503613 29.653684
v 67.625183 50.503613 -30.346316
v -66.369385 50.503613 29.653684
v -66.369385 50.503613 -30.346316
v -66.369385 89.284576 29.653684
v -66.369385 89.284576 -30.346316
v 65.932586 2.530800 -35.346316
v 65.631378 2.832008 -35.045107
v -64.676758 2.530800 -35.346316
v -64.375550 2.832008 -35.045107
v -64.676758 44.791428 -35.346316
v -64.375550 44.490223 -35.045107
v 65.932586 44.791428 -35.346316
v 65.631378 44.490223 -35.045107
v -64.676758 46.215809 -35.346316
v -64.375550 46.517017 -35.045107
v 65.932586 46.215809 -35.346316
v 65.631378 46.517017 -35.045107
v -64.676758 90.044449 -35.346316
v -64.375550 89.743240 -35.045107
v 65.932586 90.044449 -35.346316
v 65.631378 89.743240 -35.045107
v -67.875550 4.949436 -30.647524
v -67.574341 5.250641 -30.346316
v -67.875550 4.949436 29.954893
v -67.574341 5.250641 29.653684
v -67.875550 40.804806 29.954893
v -67.574341 40.503632 29.653684
v -67.875550 40.804806 -30.647524
v -67.574341 40.503632 -30.346316
v 69.131378 40.804806 -30.647524
v 68.830169 40.503632 -30.346316
v 69.131378 40.804806 29.954893
v 68.830169 40.503632 29.653684
v 69.131378 4.949436 29.954893
v 68.830169 5.250641 29.653684
v 69.131378 4.949436 -30.647524
v 68.830169 5.250641 -30.346316
v 69.131378 89.585785 -30.647524
v 68.830169 89.284576 -30.346316
v 69.131378 89.585785 29.954893
v 68.830169 89.284576 29.653684
v 69.131378 50.202374 29.954893
v 68.830169 50.503613 29.653684
v 69.131378 50.202374 -30.647524
v 68.830169 50.503613 -30.346316
v -67.875550 50.202374 29.954893
v -67.574341 50.503613 29.653684
v -67.875550 50.202374 -30.647524
v -67.574341 50.503613 -30.346316
v -67.875550 89.585785 29.954893
v -67.574341 89.284576 29.653684
v -67.875550 89.585785 -30.647524
v -67.574341 89.284576 -30.346316
v -67.875550 0.632019 -34.964938
v -67.494172 0.522491 -35.346316
v -67.550019 0.250641 -35.346316
v -67.875550 0.250641 -34.964938
v -67.494172 45.503620 -35.346316
v -67.875550 45.503620 -34.964938
v -67.875550 0.632019 34.272306
v -67.875550 0.250641 34.384000
v -67.494172 0.250641 34.653684
v -67.875550 45.503620 34.272306
v -67.494172 45.503620 34.653684
v 69.131378 0.632019 -34.964938
v 69.131378 0.250641 -35.020785
v 68.805847 0.250641 -35.346316
v 68.749999 0.522491 -35.346316
v 69.131378 45.503620 -34.964938
v 68.749999 45.503620 -35.346316
v 69.131378 0.632019 34.272306
v 68.749999 0.250641 34.653684
v 69.131378 0.250641 34.384000
v 68.749999 45.503620 34.653684
v 69.131378 45.503620 34.272306
v -67.144196 94.284485 -34.996356
v -67.525574 94.284485 -34.614977
v -67.494172 93.813293 -35.346316
v -67.875550 93.813293 -34.964938
v -67.144196 94.284485 34.303709
v -67.525574 94.284485 33.922330
v -67.497315 93.934586 34.653684
v -67.875550 93.814270 34.275449
v 68.781417 94.284485 -34.614977
v 68.400039 94.284485 -34.996356
v 68.749999 93.813293 -35.346316
v 69.131378 93.813293 -34.964938
v 68.781417 94.284485 33.922330
v 68.400039 94.284485 34.303709
v 68.753127 93.934586 34.653684
v 69.131378 93.814270 34.275449
vt 0.720919 0.380050
vt 0.561872 0.378813
vt 0.559596 0.233982
vt 0.721987 0.232186
vt 0.700782 0.436650
vt 0.702757 0.598770
vt 0.555955 0.598865
vt 0.554892 0.439146
vt 0.910090 0.436688
vt 0.909743 0.596664
vt 0.749747 0.598363
vt 0.747906 0.436155
vt 0.721507 0.185081
vt 0.559064 0.186965
vt 0.559062 0.025028
vt 0.719217 0.024851
vt 0.761409 0.009477
vt 0.762473 0.010897
vt 0.762324 0.183728
vt 0.761255 0.185142
vt 0.932465 0.009601
vt 0.931396 0.011014
vt 0.932308 0.185184
vt 0.931244 0.183766
vt 0.724189 0.383668
vt 0.723126 0.382228
vt 0.724059 0.229896
vt 0.725123 0.228442
vt 0.558771 0.382581
vt 0.559811 0.381139
vt 0.556237 0.230468
vt 0.557332 0.231874
vt 0.704310 0.433288
vt 0.702899 0.434384
vt 0.552535 0.437118
vt 0.551076 0.436086
vt 0.706489 0.601917
vt 0.705040 0.600855
vt 0.552398 0.602180
vt 0.553820 0.601103
vt 0.913662 0.433369
vt 0.912224 0.434438
vt 0.745638 0.434047
vt 0.744178 0.432985
vt 0.913498 0.599794
vt 0.912051 0.598749
vt 0.746247 0.601728
vt 0.747655 0.600641
vt 0.555900 0.190693
vt 0.556961 0.189237
vt 0.723797 0.187170
vt 0.724893 0.188581
vt 0.555731 0.021471
vt 0.556808 0.022901
vt 0.721292 0.022535
vt 0.722332 0.021083
vt 0.735740 0.402006
vt 0.735512 0.403557
vt 0.547212 0.402390
vt 0.547342 0.400980
vt 0.534035 0.613945
vt 0.530247 0.630456
vt 0.530251 0.816011
vt 0.737179 0.402727
vt 0.532619 0.614085
vt 0.737095 0.208349
vt 0.531122 0.424871
vt 0.532672 0.424769
vt 0.531922 0.423342
vt 0.723999 0.419582
vt 0.738559 0.208325
vt 0.733761 0.003202
vt 0.735200 0.002940
vt 0.932312 0.191091
vt 0.717849 0.816007
vt 0.546023 0.403214
vt 0.918623 0.816011
vt 0.542556 0.210841
vt 0.724024 0.421046
vt 0.931831 0.420261
vt 0.931243 0.192504
vt 0.931582 0.421701
vt 0.531805 0.615300
vt 0.717845 0.630452
vt 0.726522 0.613835
vt 0.918619 0.630439
vt 0.544022 0.210808
vt 0.762326 0.192468
vt 0.920350 0.815064
vt 0.542556 0.002824
vt 0.761259 0.191050
vt 0.726540 0.615300
vt 0.931325 0.611290
vt 0.920346 0.631386
vt 0.932107 0.612706
vt 0.934789 0.421528
vt 0.933767 0.422703
vt 0.933510 0.610274
vt 0.934530 0.611458
vt 0.530247 0.423848
vt 0.527233 0.179197
vt 0.527233 0.361362
vt 0.543984 0.003578
vt 0.732746 0.001017
vt 0.733968 0.000000
vt 0.543817 0.000374
vt 0.545002 0.001393
vt 0.736683 0.404432
vt 0.000000 0.179197
vt 0.000000 0.361362
vt 0.932356 0.373151
vt 0.931289 0.371734
vt 0.762389 0.371802
vt 0.761320 0.373215
vt 0.753857 0.001127
vt 0.753708 0.000000
vt 0.940178 0.000151
vt 0.940028 0.001278
vt 0.939856 0.188142
vt 0.753708 0.188093
vt 0.939916 0.388808
vt 0.938974 0.390976
vt 0.754712 0.391026
vt 0.753772 0.388859
vt 0.514232 0.549209
vt 0.514232 0.731374
vt 0.389300 0.746524
vt 0.389300 0.930203
vt 0.203577 0.930203
vt 0.203577 0.746524
vt 0.000148 0.746524
vt 0.187747 0.746824
vt 0.187599 0.932379
vt 0.000000 0.932379
vt 0.341536 0.549209
vt 0.172696 0.549209
vt 0.172696 0.376512
vt 0.341536 0.376512
vt 0.348036 0.179197
vt 0.179197 0.179197
vt 0.179197 0.000000
vt 0.348036 0.000000
vt 0.341536 0.731374
vt 0.172697 0.731374
vt 0.405260 1.000000
vt 0.405260 0.831161
vt 0.587426 0.831161
vt 0.587426 1.000000
vt 0.348036 0.361362
vt 0.179197 0.361362
vt 0.603156 0.999999
vt 0.603156 0.831160
vt 0.785321 0.831160
vt 0.785321 0.999999
vt 0.000000 0.731374
vt 0.000000 0.549209
vn -1.000000 0.000000 0.000000
vn -1.000000 0.000000 0.000000
vn -1.000000 0.000000 0.000000
vn -1.000000 0.000000 0.000000
vn 1.000000 0.000000 -0.000000
vn 1.000000 0.000000 -0.000000
vn 1.000000 0.000000 -0.000000
vn 1.000000 0.000000 -0.000000
vn -0.000000 0.000000 -1.000000
vn -0.000000 0.000000 -1.000000
vn -0.000000 0.000000 -1.000000
vn -0.000000 0.000000 -1.000000
vn -0.000000 0.000000 -1.000000
vn -0.000000 0.000000 -1.000000
vn -0.000000 0.000000 -1.000000
vn -0.000000 0.000000 -1.000000
vn 1.000000 0.000000 -0.000000
vn 1.000000 0.000000 -0.000000
vn 1.000000 0.000000 -0.000000
vn 1.000000 0.000000 -0.000000
vn -1.000000 0.000000 0.000000
vn -1.000000 0.000000 0.000000
vn -1.000000 0.000000 0.000000
vn -1.000000 0.000000 0.000000
vn -0.707089 0.000000 -0.707124
vn -0.707089 0.000000 -0.707124
vn -0.707089 0.000000 -0.707124
vn -0.707089 0.000000 -0.707124
vn -0.000000 0.707107 -0.707106
vn -0.000000 0.707108 -0.707106
vn -0.000000 0.707108 -0.707106
vn -0.000000 0.707107 -0.707106
vn 0.707076 0.000000 -0.707138
vn 0.707076 0.000000 -0.707138
vn 0.707076 0.000000 -0.707138
vn 0.707076 0.000000 -0.707138
vn -0.000000 -0.707112 -0.707102
vn -0.000000 -0.707112 -0.707102
vn -0.000000 -0.707112 -0.707102
vn -0.000000 -0.707112 -0.707102
vn -0.000000 0.707108 -0.707106
vn -0.000000 0.707107 -0.707106
vn -0.000000 0.707107 -0.707106
vn -0.000000 0.707108 -0.707106
vn 0.707093 0.000000 -0.707120
vn 0.707093 0.000000 -0.707120
vn 0.707093 0.000000 -0.707120
vn 0.707093 0.000000 -0.707120
vn -0.707107 0.000000 -0.707107
vn -0.707107 0.000000 -0.707107
vn -0.707107 0.000000 -0.707107
vn -0.707107 0.000000 -0.707107
vn -0.000000 -0.707107 -0.707106
vn -0.000000 -0.707108 -0.707106
vn -0.000000 -0.707108 -0.707106
vn -0.000000 -0.707107 -0.707106
vn -0.707082 0.000000 0.707131
vn -0.707082 0.000000 0.707131
vn -0.707082 0.000000 0.707131
vn -0.707082 0.000000 0.707131
vn -0.707102 0.707112 0.000000
vn -0.707102 0.707112 0.000000
vn -0.707102 0.707112 0.000000
vn -0.707102 0.707112 0.000000
vn -0.707082 0.000000 -0.707131
vn -0.707082 0.000000 -0.707131
vn -0.707082 0.000000 -0.707131
vn -0.707082 0.000000 -0.707131
vn -0.707071 -0.707143 0.000000
vn -0.707071 -0.707143 0.000000
vn -0.707071 -0.707143 0.000000
vn -0.707071 -0.707143 0.000000
vn 0.707115 0.000000 0.707099
vn 0.707115 0.000000 0.707099
vn 0.707115 0.000000 0.707099
vn 0.707115 0.000000 0.707099
vn 0.707071 -0.707143 -0.000000
vn 0.707071 -0.707143 -0.000000
vn 0.707071 -0.707143 -0.000000
vn 0.707071 -0.707143 -0.000000
vn 0.707115 0.000000 -0.707099
vn 0.707115 0.000000 -0.707099
vn 0.707115 0.000000 -0.707099
vn 0.707115 0.000000 -0.707099
vn 0.707102 0.707112 -0.000000
vn 0.707102 0.707112 -0.000000
vn 0.707102 0.707112 -0.000000
vn 0.707102 0.707112 -0.000000
vn 0.707104 0.000000 0.707109
vn 0.707104 0.000000 0.707109
vn 0.707104 0.000000 0.707109
vn 0.707104 0.000000 0.707109
vn 0.707113 -0.707100 -0.000000
vn 0.707113 -0.707100 -0.000000
vn 0.707113 -0.707100 -0.000000
vn 0.707113 -0.707100 -0.000000
vn 0.707104 0.000000 -0.707109
vn 0.707104 0.000000 -0.707109
vn 0.707104 0.000000 -0.707109
vn 0.707104 0.000000 -0.707109
vn 0.707142 0.707072 -0.000000
vn 0.707142 0.707072 -0.000000
vn 0.707142 0.707072 -0.000000
vn 0.707142 0.707072 -0.000000
vn -0.707142 0.707072 0.000000
vn -0.707142 0.707072 0.000000
vn -0.707142 0.707072 0.000000
vn -0.707142 0.707072 0.000000
vn -0.707119 0.000000 -0.707095
vn -0.707119 0.000000 -0.707095
vn -0.707119 0.000000 -0.707095
vn -0.707119 0.000000 -0.707095
vn -0.707119 0.000000 0.707095
vn -0.707119 0.000000 0.707095
vn -0.707119 0.000000 0.707095
vn -0.707119 0.000000 0.707095
vn -0.707113 -0.707100 0.000000
vn -0.707113 -0.707100 0.000000
vn -0.707113 -0.707100 0.000000
vn -0.707113 -0.707100 0.000000
vn 0.000000 1.000000 0.000000
vn 0.000000 1.000000 0.000000
vn 0.000000 1.000000 0.000000
vn 0.000000 1.000000 0.000000
vn 1.000000 0.000000 -0.000000
vn 1.000000 0.000000 -0.000000
vn 1.000000 0.000000 -0.000000
vn 1.000000 0.000000 -0.000000
vn 0.000000 -1.000000 0.000000
vn 0.000000 -1.000000 0.000000
vn 0.000000 -1.000000 0.000000
vn 0.000000 -1.000000 0.000000
vn -1.000000 0.000000 0.000000
vn -1.000000 0.000000 0.000000
vn -1.000000 0.000000 0.000000
vn -1.000000 0.000000 0.000000
vn 0.000000 1.000000 0.000000
vn 0.000000 1.000000 0.000000
vn 0.000000 1.000000 0.000000
vn 0.000000 1.000000 0.000000
vn 1.000000 0.000000 -0.000000
vn 1.000000 0.000000 -0.000000
vn 1.000000 0.000000 -0.000000
vn 1.000000 0.000000 -0.000000
vn 0.000000 -1.000000 0.000000
vn 0.000000 -1.000000 0.000000
vn 0.000000 -1.000000 0.000000
vn 0.000000 -1.000000 0.000000
vn -1.000000 0.000000 0.000000
vn -1.000000 0.000000 0.000000
vn -1.000000 0.000000 0.000000
vn -1.000000 0.000000 0.000000
vn 0.000000 1.000000 0.000000
vn 0.000000 1.000000 0.000000
vn 0.000000 1.000000 0.000000
vn 0.000000 1.000000 0.000000
vn -0.000000 0.000000 -1.000000
vn -0.000000 0.000000 -1.000000
vn -0.000000 0.000000 -1.000000
vn -0.000000 0.000000 -1.000000
vn 0.000000 -1.000000 0.000000
vn 0.000000 -1.000000 0.000000
vn 0.000000 -1.000000 0.000000
vn 0.000000 -1.000000 0.000000
vn 0.000000 0.000000 1.000000
vn 0.000000 0.000000 1.000000
vn 0.000000 0.000000 1.000000
vn 0.000000 0.000000 1.000000
vn 0.000000 -1.000000 0.000000
vn 0.000000 -1.000000 0.000000
vn 0.000000 -1.000000 0.000000
vn 0.000000 -1.000000 0.000000
vn -0.000000 0.000000 -1.000000
vn -0.000000 0.000000 -1.000000
vn -0.000000 0.000000 -1.000000
vn -0.000000 0.000000 -1.000000
vn 0.000000 1.000000 0.000000
vn 0.000000 1.000000 0.000000
vn 0.000000 1.000000 0.000000
vn 0.000000 1.000000 0.000000
vn 0.000000 0.000000 1.000000
vn 0.000000 0.000000 1.000000
vn 0.000000 0.000000 1.000000
vn 0.000000 0.000000 1.000000
vn 0.000000 -1.000000 0.000000
vn 0.000000 -1.000000 0.000000
vn 0.000000 -1.000000 0.000000
vn 0.000000 -1.000000 0.000000
vn -0.000000 0.000000 -1.000000
vn -0.000000 0.000000 -1.000000
vn -0.000000 0.000000 -1.000000
vn -0.000000 0.000000 -1.000000
vn 0.000000 1.000000 0.000000
vn 0.000000 1.000000 0.000000
vn 0.000000 1.000000 0.000000
vn 0.000000 1.000000 0.000000
vn 0.000000 0.000000 1.000000
vn 0.000000 0.000000 1.000000
vn 0.000000 0.000000 1.000000
vn 0.000000 0.000000 1.000000
vn 0.000000 1.000000 0.000000
vn 0.000000 1.000000 0.000000
vn 0.000000 1.000000 0.000000
vn 0.000000 1.000000 0.000000
vn -0.000000 0.000000 -1.000000
vn -0.000000 0.000000 -1.000000
vn -0.000000 0.000000 -1.000000
vn -0.000000 0.000000 -1.000000
vn 0.000000 -1.000000 0.000000
vn 0.000000 -1.000000 0.000000
vn 0.000000 -1.000000 0.000000
vn 0.000000 -1.000000 0.000000
vn 0.000000 0.000000 1.000000
vn 0.000000 0.000000 1.000000
vn 0.000000 0.000000 1.000000
vn 0.000000 0.000000 1.000000
vn -1.000000 0.000000 -0.000000
vn -1.000000 0.000000 0.000000
vn -1.000000 0.000000 0.000000
vn -1.000000 0.000000 0.000001
vn -1.000000 0.000000 0.000002
vn -1.000000 0.000000 -0.000001
vn 0.000000 -1.000000 0.000000
vn 0.000000 -1.000000 0.000000
vn -0.000000 -1.000000 0.000000
vn -0.000000 -1.000000 0.000000
vn -0.000000 -0.000001 -1.000000
vn -0.000000 -0.000001 -1.000000
vn -0.000000 -0.000001 -1.000000
vn -0.000000 -0.000001 -1.000000
vn -0.000000 -0.000001 -1.000000
vn -0.000000 -0.000001 -1.000000
vn 1.000000 0.000000 -0.000000
vn 1.000000 0.000000 -0.000000
vn 1.000000 0.000000 -0.000000
vn 1.000000 0.000000 0.000000
vn 1.000000 0.000000 0.000001
vn 1.000000 0.000000 -0.000001
vn -0.707294 0.000518 -0.706919
vn -0.707230 0.000339 -0.706983
vn -0.707113 0.000000 -0.707101
vn -0.707113 0.000000 -0.707101
vn -0.707115 0.000000 -0.707099
vn -0.707115 0.000000 -0.707099
vn -0.706957 0.000309 0.707257
vn -0.706821 0.000581 0.707393
vn -0.707103 -0.000024 0.707111
vn -0.707103 -0.000024 0.707111
vn -0.707095 -0.000046 0.707119
vn -0.707095 -0.000046 0.707119
vn 0.707065 0.000581 -0.707149
vn 0.707035 0.000959 -0.707178
vn 0.707113 0.000000 -0.707101
vn 0.707113 0.000000 -0.707101
vn 0.707115 0.000000 -0.707099
vn 0.707115 0.000000 -0.707099
vn 0.706810 0.000581 0.707403
vn 0.706947 0.000309 0.707267
vn 0.707093 -0.000024 0.707120
vn 0.707093 -0.000024 0.707120
vn 0.707086 -0.000046 0.707128
vn 0.707085 -0.000046 0.707128
vn -0.487579 0.724253 -0.487569
vn -0.487579 0.724253 -0.487569
vn -0.487579 0.724253 -0.487569
vn -0.487579 0.724253 -0.487569
vn -0.509117 0.768589 0.387390
vn -0.801302 0.598255 0.002453
vn -0.800279 0.599611 0.004556
vn -0.509117 0.768589 0.387390
vn 0.487571 0.724257 -0.487571
vn 0.487571 0.724257 -0.487571
vn 0.487571 0.724257 -0.487571
vn 0.487571 0.724257 -0.487571
vn 0.801315 0.598238 0.002453
vn 0.509136 0.768579 0.387386
vn 0.509136 0.768579 0.387386
vn 0.800291 0.599594 0.004556
vn 0.000000 -0.000000 1.000000
vn 0.000000 0.000000 1.000000
vn 0.000000 0.000000 1.000000
vn 0.000000 -0.000000 1.000000
vn -0.000000 0.000000 -1.000000
vn -0.000000 0.000002 -1.000000
vn -0.000000 0.000000 -1.000000
vn -0.000000 0.000002 -1.000000
vn -0.000000 -0.000002 -1.000000
vn -0.000000 -0.000002 -1.000000
vn -1.000000 0.000000 0.000001
vn -1.000000 0.000000 0.000002
vn -1.000000 0.000000 -0.000001
vn -1.000000 0.000000 -0.000001
vn 1.000000 0.000000 -0.000000
vn 1.000000 0.000000 0.000000
vn 1.000000 0.000000 -0.000001
vn 1.000000 0.000000 0.000001
vn 1.000000 0.000000 -0.000001
vn 1.000000 0.000000 0.000001
vn -1.000000 0.000000 0.000002
vn -1.000000 0.000000 -0.000002
vn -0.802491 0.596664 -0.000004
vn -0.802491 0.596664 -0.000004
vn -0.000000 0.596258 -0.802793
vn -0.000000 0.596258 -0.802793
vn -0.000000 0.596258 -0.802793
vn -0.000000 0.596258 -0.802793
vn 0.000000 0.707197 0.707017
vn 0.000000 0.707197 0.707017
vn 0.000000 0.707197 0.707017
vn 0.000000 0.707197 0.707017
vn 0.802504 0.596647 -0.000004
vn 0.802504 0.596647 -0.000004
vn 0.000000 -0.000000 1.000000
vn 0.000000 -0.000000 1.000000
vn -0.000000 0.000001 -1.000000
vn -0.000000 0.000001 -1.000000
vn -0.000000 0.000001 -1.000000
vn -0.000000 0.000001 -1.000000
vn 1.000000 0.000000 -0.000001
vn 1.000000 0.000000 0.000001
vn 1.000000 0.000000 0.000001
vn 1.000000 0.000000 -0.000001
vn -1.000000 0.000000 0.000002
vn -1.000000 0.000000 0.000002
vn -1.000000 0.000000 -0.000002
vn -1.000000 0.000000 -0.000002
vn -0.727552 0.062253 -0.683222
vn -0.727552 0.062253 -0.683222
vn -0.561582 0.232532 0.794075
vn 0.692632 0.120055 -0.711230
vn 0.692632 0.120055 -0.711230
vn 0.561527 0.232509 0.794121
vn 0.000000 1.000000 0.000000
vn 0.000000 1.000000 0.000000
vn 0.000000 1.000000 0.000000
vn 0.000000 1.000000 0.000000
vn 0.000000 1.000000 0.000000
vn 0.000000 1.000000 0.000000
vn 0.000000 1.000000 0.000000
vn 0.000000 1.000000 0.000000
vn -0.000001 1.000000 0.000000
vn -0.000001 1.000000 0.000000
vn -0.000001 1.000000 0.000000
vn -0.000001 1.000000 0.000000
vn 0.000000 -1.000000 0.000000
vn 0.000000 -1.000000 0.000000
vn -0.000000 -1.000000 0.000000
vn -0.000000 -1.000000 0.000000
s off
g pCube113 group14 group33
usemtl lambert2SG
f 9/1/1 10/2/2 11/3/3 12/4/4
f 13/5/5 14/6/6 15/7/7 16/8/8
f 1/135/9 2/136/10 3/137/11 4/138/12
f 6/139/13 5/140/14 7/141/15 8/142/16
f 17/9/17 18/10/18 19/11/19 20/12/20
f 22/13/21 21/14/22 23/15/23 24/16/24
f 25/17/25 26/18/26 32/19/27 31/20/28
f 26/18/29 25/17/30 27/21/31 28/22/32
f 28/22/33 27/21/34 29/23/35 30/24/36
f 30/24/37 29/23/38 31/20/39 32/19/40
f 33/74/41 34/81/42 36/88/43 35/91/44
f 34/81/45 33/74/46 37/111/47 38/112/48
f 35/91/49 36/88/50 40/113/51 39/114/52
f 38/112/53 37/111/54 39/114/55 40/113/56
f 41/25/57 42/26/58 48/27/59 47/28/60
f 42/26/61 41/25/62 43/29/63 44/30/64
f 44/30/65 43/29/66 45/31/67 46/32/68
f 46/32/69 45/31/70 47/28/71 48/27/72
f 49/33/73 50/34/74 56/35/75 55/36/76
f 50/34/77 49/33/78 51/37/79 52/38/80
f 52/38/81 51/37/82 53/39/83 54/40/84
f 54/40/85 53/39/86 55/36/87 56/35/88
f 57/41/89 58/42/90 64/43/91 63/44/92
f 58/42/93 57/41/94 59/45/95 60/46/96
f 60/46/97 59/45/98 61/47/99 62/48/100
f 62/48/101 61/47/102 63/44/103 64/43/104
f 65/49/105 66/50/106 68/51/107 67/52/108
f 66/50/109 65/49/110 69/53/111 70/54/112
f 67/52/113 68/51/114 72/55/115 71/56/116
f 70/54/117 69/53/118 71/56/119 72/55/120
f 26/143/121 28/144/122 2/136/123 1/135/124
f 28/144/125 30/155/126 3/156/127 2/136/128
f 30/145/129 32/146/130 4/147/131 3/148/132
f 32/126/133 26/143/134 1/135/135 4/125/136
f 36/149/137 34/150/138 5/140/139 6/139/140
f 34/150/141 38/110/142 7/109/143 5/140/144
f 38/151/145 40/152/146 8/153/147 7/154/148
f 40/102/149 36/149/150 6/139/151 8/101/152
f 42/26/153 44/30/154 10/2/155 9/1/156
f 44/30/157 46/32/158 11/3/159 10/2/160
f 46/32/161 48/27/162 12/4/163 11/3/164
f 48/27/165 42/26/166 9/1/167 12/4/168
f 50/34/169 52/38/170 14/6/171 13/5/172
f 52/38/173 54/40/174 15/7/175 14/6/176
f 54/40/177 56/35/178 16/8/179 15/7/180
f 56/35/181 50/34/182 13/5/183 16/8/184
f 58/42/185 60/46/186 18/10/187 17/9/188
f 60/46/189 62/48/190 19/11/191 18/10/192
f 62/48/193 64/43/194 20/12/195 19/11/196
f 64/43/197 58/42/198 17/9/199 20/12/200
f 68/51/201 66/50/202 21/14/203 22/13/204
f 66/50/205 70/54/206 23/15/207 21/14/208
f 70/54/209 72/55/210 24/16/211 23/15/212
f 72/55/213 68/51/214 22/13/215 24/16/216
s 1
f 73/57/217 76/58/218 80/59/219 79/60/220 43/29/221 41/25/222
s 2
f 86/131/223 91/132/224 81/133/225 75/134/226
s 3
f 87/115/227 86/116/228 75/117/229 74/118/230 27/21/231 25/17/232
s 4
f 90/61/233 92/65/234 85/67/235 84/68/236 55/36/237 53/39/238
s 5
f 74/64/239 73/57/240 78/66/241 77/71/242
f 77/71/242 78/66/241 98/72/243 97/73/244
s 6
f 79/60/245 81/76/246 83/78/247 82/87/248
f 82/87/248 83/78/247 101/90/249 102/103/250
s 7
f 84/68/251 87/69/252 89/70/253 88/79/254
f 88/79/254 89/70/253 105/80/255 106/82/256
s 8
f 91/83/257 90/61/258 94/85/259 93/92/260
f 93/92/260 94/85/259 110/93/261 109/95/262
s off
f 96/104/263 95/105/264 97/73/265 98/72/266
s 9
f 99/106/267 100/107/268 102/103/269 101/90/270
s off
f 104/96/271 103/97/272 106/82/273 105/80/274
s 10
f 107/98/275 108/99/276 109/95/277 110/93/278
s 11
f 83/75/279 81/63/280 91/62/281 93/84/282
s 3
f 74/118/230 77/119/283 29/23/284 27/21/231
f 77/119/283 89/120/285 31/20/286 29/23/284
f 89/120/285 87/115/227 25/17/232 31/20/286
f 89/120/285 77/119/283 33/74/287 35/91/288
s 1
f 79/60/220 82/87/289 45/31/290 43/29/221
f 82/87/289 78/66/291 47/28/292 45/31/290
f 78/66/291 73/57/217 41/25/222 47/28/292
s 4
f 88/79/293 94/85/294 51/37/295 49/33/296
f 94/85/294 90/61/233 53/39/238 51/37/295
f 84/68/236 88/79/293 49/33/296 55/36/237
f 94/85/294 88/79/293 63/44/297 61/47/298
s 1
f 78/66/291 82/87/289 65/49/299 67/52/300
s 9
f 96/104/301 98/72/302 102/103/269 100/107/268
s off
f 97/121/303 95/122/304 104/123/305 105/124/306
f 99/89/307 101/77/308 109/86/309 108/94/310
s 10
f 106/82/311 103/97/312 107/98/275 110/93/278
s 11
f 83/75/279 93/84/282 109/86/313 101/77/314
s 3
f 77/119/283 97/121/315 37/111/316 33/74/287
f 97/121/315 105/124/317 39/114/318 37/111/316
f 105/124/317 89/120/285 35/91/288 39/114/318
s 4
f 106/82/319 110/93/320 59/45/321 57/41/322
f 110/93/320 94/85/294 61/47/298 59/45/321
f 88/79/293 106/82/319 57/41/322 63/44/297
s 1
f 82/87/289 102/103/323 69/53/324 65/49/299
f 102/103/323 98/72/325 71/56/326 69/53/324
f 98/72/325 78/66/291 67/52/300 71/56/326
s 5
f 73/57/240 74/64/239 75/108/327 76/58/328
s 6
f 79/60/245 80/59/329 81/76/246
s 7
f 84/68/251 85/67/330 86/100/331 87/69/252
s 8
f 90/61/258 91/83/257 92/65/332
s off
f 104/127/333 95/128/334 99/129/335 108/130/336
f 95/105/337 96/104/338 100/107/339 99/106/340
f 107/98/341 103/97/342 104/96/343 108/99/344
s 2
f 86/100/223 85/67/345 92/65/346 91/83/224
f 75/108/226 81/76/225 80/59/347 76/58/348
