# This file uses centimeters as units for non-parametric coordinates.

mtllib SM_Wall_001.mtl
g default
v -18.789581 -1.587736 0.000000
v -18.789581 -1.587736 305.000000
v -22.414734 119.364436 0.000000
v -22.414734 119.364436 305.000000
v -5.799774 119.364436 0.000000
v -5.799774 119.364436 305.000000
v -5.799774 -1.587736 0.000000
v -5.799774 -1.587736 305.000000
v -18.789581 109.851374 305.000000
v -18.789581 109.851374 0.000000
v -5.799774 109.851374 0.000000
v -5.799774 109.851374 305.000000
v -22.414734 121.279566 0.000000
v -22.414734 121.279566 305.000000
v -5.799774 121.279566 305.000000
v -5.799774 121.279566 0.000000
v -23.656311 119.364436 0.000000
v -23.656311 119.364436 305.000000
v -23.656311 121.279566 305.000000
v -23.656311 121.279566 0.000000
v -18.789581 107.430781 305.000000
v -18.789581 107.430781 0.000000
v -5.799774 107.430781 0.000000
v -5.799774 107.430781 305.000000
v -19.933136 107.430781 305.000000
v -19.933136 107.430781 0.000000
v -19.933136 109.851374 305.000000
v -19.933136 109.851374 0.000000
v -20.660187 116.600955 305.000000
v -19.630127 114.497355 305.000000
v -19.085510 112.219302 305.000000
v -19.085510 112.219302 0.000000
v -19.630127 114.497355 0.000000
v -20.660187 116.600955 0.000000
v -6.434540 112.330035 0.000000
v -6.720184 114.587077 0.000000
v -6.439362 116.844706 0.000000
v -6.434540 112.330035 305.000000
v -6.720184 114.587077 305.000000
v -6.439362 116.844706 305.000000
v -22.197128 -1.587713 0.000000
v -22.197128 -1.587713 305.000000
v -22.197128 14.485245 0.000000
v -22.197128 14.485245 305.000000
v -18.661148 14.485245 0.000000
v -18.661148 14.485245 305.000000
v -18.661148 -1.587713 0.000000
v -18.661148 -1.587713 305.000000
v -22.197128 1.614076 305.000000
v -22.197128 1.614076 0.000000
v -18.661148 1.614076 0.000000
v -18.661148 1.614076 305.000000
v -24.495285 -1.587713 0.000000
v -24.495285 -1.587713 305.000000
v -24.495285 -0.386615 305.000000
v -24.495285 -0.386615 0.000000
v -23.540146 0.993005 305.000000
v -23.540146 -1.587714 305.000000
v -23.540146 -1.587714 0.000000
v -23.540146 0.993005 0.000000
v -15.123230 -1.587713 0.000031
v -15.123230 -1.587713 305.000000
v -15.123230 303.637004 0.000031
v -15.123230 303.637004 305.000000
v -16.796021 285.601420 305.000061
v -16.796021 285.601420 0.000061
v -7.501556 285.601420 305.000061
v -7.501556 285.601420 0.000061
v -7.501556 296.238627 305.000061
v -7.501556 296.238627 0.000061
v -16.796021 296.238627 305.000061
v -16.796021 296.238627 0.000061
v -2.682251 301.273600 305.000000
v -2.682251 301.273600 -0.000031
v -21.615143 301.273600 -0.000031
v -21.615143 301.273600 305.000000
v -2.682251 303.637004 305.000000
v -2.682251 303.637004 -0.000031
v -21.615143 303.637004 -0.000031
v -21.615143 303.637004 305.000000
v 0.000000 301.273600 304.999878
v 0.000000 301.273600 -0.000061
v 0.000000 303.637004 -0.000061
v 0.000000 303.637004 304.999878
v -24.297394 301.273600 -0.000061
v -24.297394 303.637004 -0.000061
v -24.297394 301.273600 304.999878
v -24.297394 303.637004 304.999878
v -16.796021 287.635539 0.000061
v -16.796021 287.635539 305.000061
v -7.501556 287.635539 305.000061
v -7.501556 287.635539 0.000061
v -17.406021 287.635539 0.000031
v -17.406021 287.635539 305.000061
v -17.406021 285.601420 0.000031
v -17.406021 285.601420 305.000061
v -6.223022 287.635539 305.000061
v -6.223022 285.601420 305.000061
v -6.223022 285.601420 0.000031
v -6.223022 287.635539 0.000031
v -8.194611 287.635539 305.000061
v -8.194611 287.635539 0.000061
v -8.194611 296.238627 0.000061
v -8.194611 296.238627 305.000061
v -16.102966 296.238627 305.000061
v -16.102966 296.238627 0.000061
v -16.102966 287.635539 0.000061
v -16.102966 287.635539 305.000061
v -19.877914 299.650187 0.000031
v -18.725281 298.460978 0.000031
v -17.221191 296.742320 0.000061
v -7.076263 296.742381 0.000061
v -5.572166 298.460978 0.000031
v -4.419487 299.650187 0.000031
v -7.076263 296.742381 305.000122
v -5.572166 298.460978 305.000061
v -4.419487 299.650187 305.000061
v -17.221191 296.742320 305.000061
v -18.725281 298.460978 305.000061
v -19.877914 299.650187 305.000061
vt 0.952191 0.016639
vt 0.952517 0.692889
vt 0.817463 0.013214
vt 0.705323 0.013952
vt 0.706760 0.696241
vt 0.693310 0.014037
vt 0.694749 0.696327
vt 0.952999 0.704797
vt 0.952999 0.004709
vt 0.849751 0.001502
vt 0.809712 0.695445
vt 0.834392 0.014455
vt 0.835397 0.693854
vt 0.820107 0.694328
vt 0.819019 0.014051
vt 0.837097 0.015057
vt 0.838114 0.693655
vt 0.836416 0.693414
vt 0.835372 0.014994
vt 0.852150 0.694848
vt 0.850998 0.013677
vt 0.852003 0.001700
vt 0.806227 0.013283
vt 0.807477 0.695463
vt 0.853191 0.706821
vt 0.850172 0.014318
vt 0.851297 0.694248
vt 0.849096 0.694142
vt 0.847964 0.014216
vt 0.848280 0.694794
vt 0.844909 0.013473
vt 0.847117 0.013601
vt 0.847403 0.001726
vt 0.812073 0.695425
vt 0.808469 0.013269
vt 0.851024 0.707097
vt 0.846083 0.694958
vt 0.841762 0.694883
vt 0.837567 0.014010
vt 0.840575 0.013648
vt 0.841289 0.000000
vt 0.818672 0.695347
vt 0.815054 0.013229
vt 0.844761 0.707635
vt 0.842681 0.708700
vt 0.838756 0.694587
vt 0.843394 0.001008
vt 0.810839 0.013254
vt 0.816273 0.695379
vt 0.848711 0.706863
vt 0.843921 0.694998
vt 0.842739 0.013483
vt 0.812947 0.013241
vt 0.845335 0.001635
vt 0.846674 0.706971
vt 0.814173 0.695408
vt 0.393227 0.996738
vt 0.393227 0.315897
vt 0.394321 0.315897
vt 0.394321 0.996738
vt 0.409034 0.996747
vt 0.409034 0.315889
vt 0.412287 0.315889
vt 0.412287 0.996747
vt 0.424129 0.996747
vt 0.424129 0.315889
vt 0.427075 0.315889
vt 0.427075 0.996747
vt 0.430328 0.315889
vt 0.430328 0.996747
vt 0.391138 0.315891
vt 0.392686 0.312637
vt 0.396901 0.312636
vt 0.397193 0.315889
vt 0.392686 0.999999
vt 0.391138 0.996744
vt 0.397193 0.996747
vt 0.396901 1.000000
vt 0.409014 1.000000
vt 0.409014 0.312635
vt 0.392358 0.315896
vt 0.392358 0.996740
vt 0.395847 0.315894
vt 0.395847 0.996741
vt 0.680320 0.300364
vt 0.000000 0.300364
vt 0.000000 0.000000
vt 0.680320 0.000000
vt 0.000000 0.502050
vt 0.000000 0.407343
vt 0.094707 0.407343
vt 0.094707 0.502050
vt 0.142061 0.502050
vt 0.142061 0.407343
vt 0.189415 0.407343
vt 0.189415 0.502050
vt 0.189415 0.502050
vt 0.189415 0.407343
vt 0.284122 0.407343
vt 0.284122 0.502050
vt 0.284122 0.502050
vt 0.284122 0.407343
vt 0.331476 0.407343
vt 0.331476 0.502050
vt 0.094707 0.359989
vt 0.000000 0.359989
vt 0.000000 0.312635
vt 0.094707 0.312635
vt 0.000000 0.596758
vt 0.000000 0.549404
vt 0.094707 0.549404
vt 0.094707 0.596758
vt 0.189415 0.502050
vt 0.189415 0.407343
vt 0.189415 0.407343
vt 0.189415 0.502050
vt 0.284122 0.407343
vt 0.284122 0.407343
vt 0.284122 0.502050
vt 0.284122 0.502050
vt 0.189415 0.502050
vt 0.189415 0.407343
vt 0.284122 0.407343
vt 0.284122 0.502050
vt 0.331476 0.502050
vt 0.331476 0.407343
vt 0.378830 0.407343
vt 0.378830 0.502050
vt 0.094707 0.549404
vt 0.000000 0.549404
vt 0.000000 0.502050
vt 0.094707 0.502050
vt 0.094707 0.407343
vt 0.142061 0.407343
vt 0.142061 0.502050
vt 0.000000 0.407343
vt 0.000000 0.359989
vt 0.094707 0.359989
vt 0.331476 0.502050
vt 0.331476 0.407343
vt 0.378830 0.407343
vt 0.378830 0.502050
vt 0.094707 0.549404
vt 0.000000 0.549404
vt 0.142061 0.407343
vt 0.142061 0.502050
vt 0.000000 0.359989
vt 0.094707 0.359989
vt 0.189415 0.407343
vt 0.189415 0.502050
vt 0.284122 0.502050
vt 0.284122 0.407343
vt 0.000000 0.312635
vt 0.094707 0.312635
vt 0.094707 0.596758
vt 0.000000 0.596758
vt 0.284122 0.407343
vt 0.284122 0.407343
vt 0.189415 0.407343
vt 0.189415 0.407343
vt 0.284122 0.407343
vt 0.189415 0.407343
vt 0.189415 0.502050
vt 0.284122 0.502050
vt 0.189415 0.502050
vt 0.284122 0.502050
vt 0.189415 0.502050
vt 0.284122 0.502050
vn -1.000000 0.000000 0.000000
vn -1.000000 0.000000 0.000000
vn -1.000000 0.000000 0.000000
vn -1.000000 0.000000 0.000000
vn 0.000000 1.000000 0.000000
vn 0.000000 1.000000 0.000000
vn 0.000000 1.000000 0.000000
vn 0.000000 1.000000 0.000000
vn 1.000000 0.000000 0.000000
vn 1.000000 0.000000 0.000000
vn 1.000000 0.000000 0.000000
vn 1.000000 0.000000 0.000000
vn 0.000000 -1.000000 0.000000
vn 0.000000 -1.000000 0.000000
vn 0.000000 -1.000000 0.000000
vn 0.000000 -1.000000 0.000000
vn 0.000000 0.000000 1.000000
vn 0.000000 0.000000 1.000000
vn 0.000000 0.000000 1.000000
vn 0.000000 0.000000 1.000000
vn 0.000000 0.000000 -1.000000
vn 0.000000 0.000000 -1.000000
vn 0.000000 0.000000 -1.000000
vn 0.000000 0.000000 -1.000000
vn -1.000000 0.000000 0.000000
vn -1.000000 0.000000 0.000000
vn -1.000000 0.000000 0.000000
vn -1.000000 0.000000 0.000000
vn 0.000000 0.000000 1.000000
vn 0.000000 0.000000 1.000000
vn 0.000000 0.000000 1.000000
vn 0.000000 0.000000 1.000000
vn 0.989760 -0.142741 0.000000
vn 0.989760 -0.142741 0.000000
vn 1.000000 0.000000 0.000000
vn 1.000000 0.000000 0.000000
vn 0.000000 0.000000 -1.000000
vn 0.000000 0.000000 -1.000000
vn 0.000000 0.000000 -1.000000
vn 0.000000 0.000000 -1.000000
vn 0.000000 -1.000000 0.000000
vn 0.000000 -1.000000 0.000000
vn 0.000000 -1.000000 0.000000
vn 0.000000 -1.000000 0.000000
vn 0.000000 0.000000 1.000000
vn 0.000000 0.000000 1.000000
vn 0.000000 1.000000 0.000000
vn 0.000000 1.000000 0.000000
vn 0.000000 0.000000 -1.000000
vn 0.000000 0.000000 -1.000000
vn -1.000000 0.000000 0.000000
vn -1.000000 0.000000 0.000000
vn -1.000000 0.000000 0.000000
vn -1.000000 0.000000 0.000000
vn 0.000000 0.000000 -1.000000
vn 0.000000 0.000000 -1.000000
vn 0.991711 0.128491 0.000000
vn 0.991711 0.128491 0.000000
vn 0.000000 0.000000 1.000000
vn 0.000000 0.000000 1.000000
vn 0.000000 -1.000000 0.000000
vn 0.000000 -1.000000 0.000000
vn 0.000000 -1.000000 0.000000
vn 0.000000 -1.000000 0.000000
vn 0.000000 0.000000 1.000000
vn 0.000000 0.000000 1.000000
vn 0.000000 1.000000 0.000000
vn 0.000000 1.000000 0.000000
vn 0.000000 1.000000 0.000000
vn 0.000000 1.000000 0.000000
vn 0.000000 0.000000 -1.000000
vn 0.000000 0.000000 -1.000000
vn -0.984026 -0.178027 0.000000
vn -0.941074 -0.338201 0.000000
vn -0.941074 -0.338201 0.000000
vn -0.984026 -0.178027 0.000000
vn -0.867980 -0.496600 0.000000
vn -0.867980 -0.496600 0.000000
vn -0.992281 -0.124008 0.000000
vn -0.992281 -0.124008 0.000000
vn 0.000000 0.000000 -1.000000
vn 0.000000 0.000000 -1.000000
vn 0.981632 0.190787 0.000000
vn 0.981632 0.190787 0.000000
vn -0.000000 0.000000 1.000000
vn -0.000000 0.000000 1.000000
vn -0.844217 -0.536001 0.000000
vn -0.844217 -0.536001 0.000000
vn 0.000000 0.000000 -1.000000
vn 0.000000 0.000000 -1.000000
vn 0.981942 -0.189183 0.000000
vn 0.981942 -0.189183 0.000000
vn -0.000000 0.000000 1.000000
vn -0.000000 0.000000 1.000000
vn 0.000000 0.000000 -1.000000
vn 0.000000 0.000000 -1.000000
vn 1.000000 0.001067 0.000000
vn 1.000000 0.001067 0.000000
vn -0.000001 0.000000 1.000000
vn -0.000001 0.000000 1.000000
vn -1.000000 0.000000 0.000000
vn -1.000000 0.000000 0.000000
vn -1.000000 0.000000 0.000000
vn -1.000000 0.000000 0.000000
vn 0.000000 1.000000 0.000000
vn 0.000000 1.000000 0.000000
vn 0.000000 1.000000 0.000000
vn 0.000000 1.000000 0.000000
vn 1.000000 0.000000 0.000000
vn 1.000000 0.000000 0.000000
vn 1.000000 0.000000 0.000000
vn 1.000000 0.000000 0.000000
vn 0.000000 -1.000000 0.000000
vn 0.000000 -1.000000 0.000000
vn 0.000000 -1.000000 0.000000
vn 0.000000 -1.000000 0.000000
vn 0.000000 0.000000 1.000000
vn 0.000000 0.000000 1.000000
vn 0.000000 0.000000 1.000000
vn 0.000000 0.000000 1.000000
vn 0.000000 0.000000 -1.000000
vn 0.000001 0.000000 -1.000000
vn 0.000000 0.000000 -1.000000
vn 0.000000 0.000000 -1.000000
vn -1.000000 0.000000 0.000000
vn -1.000000 0.000000 0.000000
vn -1.000000 0.000000 0.000000
vn -1.000000 0.000000 0.000000
vn 0.000000 0.000000 -1.000000
vn 0.000000 0.000000 -1.000000
vn 1.000000 0.000000 0.000000
vn 1.000000 0.000000 0.000000
vn 0.000000 0.000000 1.000000
vn 0.000000 0.000000 1.000000
vn 0.000000 -1.000000 0.000000
vn 0.000000 -1.000000 0.000000
vn 0.000005 0.000000 1.000000
vn 0.000011 0.000000 1.000000
vn -0.419735 0.907647 0.000000
vn -0.419735 0.907647 0.000000
vn -0.656607 0.754233 0.000000
vn -0.656607 0.754233 0.000000
vn 0.000001 0.000000 -1.000000
vn 0.000002 0.000000 -1.000000
vn 0.000031 0.000000 1.000000
vn 0.000031 0.000000 1.000000
vn -0.000001 -1.000000 0.000000
vn -0.000001 -1.000000 0.000000
vn -0.000004 0.000000 -1.000000
vn -0.000004 0.000000 -1.000000
vn -0.822188 0.569216 0.000000
vn -0.822188 0.569216 0.000000
vn -1.000000 0.000000 0.000000
vn -1.000000 0.000000 0.000000
vn -1.000000 0.000000 0.000000
vn -1.000000 0.000000 0.000000
vn 0.000000 -1.000000 -0.000000
vn 0.000000 -1.000000 0.000000
vn 0.000000 -1.000000 0.000000
vn 0.000000 -1.000000 -0.000000
vn 1.000000 0.000000 0.000000
vn 1.000000 0.000000 0.000000
vn 1.000000 0.000000 0.000000
vn 1.000000 0.000000 0.000000
vn 0.000000 1.000000 0.000000
vn 0.000000 1.000000 -0.000000
vn 0.000000 1.000000 -0.000000
vn 0.000000 1.000000 0.000000
vn -1.000000 0.000000 0.000000
vn -1.000000 0.000000 0.000000
vn -1.000000 0.000000 0.000000
vn -1.000000 0.000000 0.000000
vn 0.000000 0.000000 -1.000000
vn 0.000000 0.000000 -1.000000
vn 0.000000 0.000000 -1.000000
vn 0.000000 0.000000 -1.000000
vn 0.000000 0.000000 1.000000
vn 0.000000 0.000000 1.000000
vn 0.000000 0.000000 1.000000
vn 0.000000 0.000000 1.000000
vn 1.000000 0.000000 0.000000
vn 1.000000 0.000000 0.000000
vn 1.000000 0.000000 0.000000
vn 1.000000 0.000000 0.000000
vn 0.000000 0.000000 -1.000000
vn 0.000000 0.000000 -1.000000
vn 0.000000 0.000000 -1.000000
vn 0.000000 0.000000 -1.000000
vn -1.000000 0.000000 0.000000
vn -1.000000 0.000000 0.000000
vn -1.000000 0.000000 0.000000
vn -1.000000 0.000000 0.000000
vn 0.000000 0.000000 1.000000
vn 0.000000 0.000000 1.000000
vn 0.000000 0.000000 1.000000
vn 0.000000 0.000000 1.000000
vn 0.000000 -0.999867 0.016325
vn 0.000000 -0.999867 -0.016325
vn 0.000000 -1.000000 -0.000000
vn 0.000000 -1.000000 0.000000
vn 0.000000 1.000000 0.000000
vn 0.000000 1.000000 -0.000000
vn 0.000000 -0.999867 -0.016325
vn 0.000000 -1.000000 -0.000000
vn 0.000000 1.000000 -0.000000
vn 0.000000 -0.999867 0.016325
vn 0.000000 -1.000000 0.000000
vn 0.000000 1.000000 0.000000
vn -1.000000 0.000000 0.000000
vn -1.000000 0.000000 0.000000
vn -1.000000 0.000000 0.000000
vn -1.000000 0.000000 0.000000
vn 0.000000 0.000000 1.000000
vn 0.000000 0.000000 1.000000
vn 0.000000 0.000000 1.000000
vn 0.000000 0.000000 1.000000
vn 1.000000 0.000000 0.000000
vn 1.000000 0.000000 0.000000
vn 1.000000 0.000000 0.000000
vn 1.000000 0.000000 0.000000
vn 0.000000 0.000000 -1.000000
vn 0.000000 0.000000 -1.000000
vn 0.000000 0.000000 -1.000000
vn 0.000000 0.000000 -1.000000
vn 0.000000 1.000000 0.000001
vn 0.000000 1.000000 -0.000001
vn 0.000000 1.000000 -0.000000
vn 0.000000 1.000000 0.000000
vn 0.000000 -1.000000 -0.000000
vn 0.000000 -1.000000 0.000000
vn 0.000000 1.000000 0.000001
vn 0.000000 1.000000 0.000000
vn 0.000000 -1.000000 -0.000000
vn 0.000000 -1.000000 0.000000
vn 0.000000 1.000000 -0.000001
vn 0.000000 1.000000 -0.000000
vn 0.000000 1.000000 0.000000
vn 0.000000 1.000000 0.000000
vn 0.000000 -1.000000 0.000000
vn 0.000000 -1.000000 0.000000
vn 0.000000 -1.000000 0.000000
vn 0.000000 -1.000000 0.000000
vn 0.000000 -1.000000 0.000000
vn 0.000000 -1.000000 0.000000
vn 0.000000 -1.000000 0.000000
vn 0.000000 -1.000000 0.000000
vn 0.000000 1.000000 0.000000
vn 0.000000 1.000000 0.000000
vn 0.000000 -0.000016 -1.000000
vn 0.000000 -0.000005 -1.000000
vn 0.000000 -0.000005 -1.000000
vn 0.000000 -0.000016 -1.000000
vn 0.000000 -0.000031 -1.000000
vn 0.000000 -0.000031 -1.000000
vn 0.764103 -0.645094 0.000000
vn 0.764103 -0.645094 0.000000
vn 0.755125 -0.655581 0.000000
vn 0.755125 -0.655581 0.000000
vn -0.000001 0.000000 -1.000000
vn -0.000001 0.000000 -1.000000
vn -0.764150 -0.645038 0.000000
vn -0.764150 -0.645038 0.000000
vn -0.755146 -0.655557 0.000000
vn -0.755146 -0.655557 0.000000
vn -0.000003 -0.000061 1.000000
vn -0.000003 -0.000061 1.000000
vn -0.000003 0.000011 1.000000
vn -0.000003 0.000011 1.000000
vn 0.697458 -0.716626 0.000000
vn 0.697458 -0.716626 0.000000
vn 0.682764 -0.730639 0.000000
vn 0.682764 -0.730639 0.000000
vn 0.000000 0.000031 1.000000
vn 0.000000 0.000031 1.000000
vn -0.697464 -0.716619 0.000000
vn -0.697465 -0.716619 0.000000
vn -0.682768 -0.730636 0.000000
vn -0.682768 -0.730636 0.000000
vn 0.738255 -0.674522 0.000000
vn 0.738255 -0.674521 0.000000
vn -0.000001 0.000005 1.000000
vn -0.000001 0.000005 1.000000
vn -0.738269 -0.674507 0.000000
vn -0.738269 -0.674507 0.000000
s off
g pCube107
usemtl lambert3SG
f 1/1/1 2/2/2 21/20/3 22/21/4
s 1
f 13/12/5 14/13/6 15/14/7 16/15/8
s 2
f 23/23/9 24/24/10 8/5/11 7/4/12
s off
f 7/4/13 8/5/14 2/7/15 1/6/16
s 3
f 2/2/17 8/8/18 24/25/19 21/20/20
s 4
f 7/9/21 1/1/22 22/21/23 23/22/24
s off
f 17/16/25 18/17/26 19/18/27 20/19/28
s 3
f 4/46/29 6/42/30 15/14/31 14/13/32
s 2
f 6/42/33 5/3/34 16/15/35 15/14/36
s 4
f 5/3/37 3/39/38 13/12/39 16/15/40
s off
f 3/39/41 4/46/42 18/17/43 17/16/44
s 3
f 4/46/29 14/13/32 19/18/45 18/17/46
s 1
f 14/13/6 13/12/5 20/19/47 19/18/48
s 4
f 13/12/39 3/39/38 17/16/49 20/19/50
s off
f 26/26/51 25/27/52 27/28/53 28/29/54
s 4
f 23/22/24 22/21/23 10/32/55 11/10/56
s 2
f 11/35/57 12/11/58 24/24/10 23/23/9
s 3
f 21/20/20 24/25/19 12/36/59 9/30/60
s off
f 22/21/61 21/20/62 25/27/63 26/26/64
s 3
f 21/20/20 9/30/60 27/28/65 25/27/66
s off
f 9/30/67 10/32/68 28/29/69 27/28/70
s 4
f 10/32/55 22/21/23 26/26/71 28/29/72
s 8
f 31/37/73 30/51/74 33/52/75 32/31/76
f 30/51/74 29/38/77 34/40/78 33/52/75
f 10/32/79 9/30/80 31/37/73 32/31/76
s 4
f 11/10/56 10/32/55 32/31/81 35/33/82
s 2
f 35/48/83 38/34/84 12/11/58 11/35/57
s 3
f 9/30/60 12/36/59 38/50/85 31/37/86
s 8
f 34/40/78 29/38/77 4/46/87 3/39/88
s 4
f 37/47/89 34/40/90 3/39/38 5/41/37
s 2
f 5/3/34 6/42/33 40/49/91 37/43/92
s 3
f 29/38/93 40/44/94 6/45/30 4/46/29
s 4
f 32/31/81 33/52/95 36/54/96 35/33/82
f 33/52/95 34/40/90 37/47/89 36/54/96
s 2
f 35/48/83 36/53/97 39/56/98 38/34/84
f 36/53/97 37/43/92 40/49/91 39/56/98
s 3
f 29/38/93 30/51/99 39/55/100 40/44/94
f 30/51/99 31/37/86 38/50/85 39/55/100
s off
usemtl lambert2SG
f 53/57/101 54/58/102 55/59/103 56/60/104
f 43/61/105 44/62/106 46/63/107 45/64/108
s 9
f 51/65/109 52/66/110 48/67/111 47/68/112
s 10
f 47/68/113 48/67/114 42/69/115 41/70/116
s 11
f 42/71/117 48/72/118 52/73/119 49/74/120
s 12
f 47/75/121 41/76/122 50/77/123 51/78/124
s off
f 50/77/125 49/74/126 44/62/127 43/61/128
s 12
f 51/78/124 50/77/123 43/61/129 45/79/130
s 9
f 45/64/131 46/63/132 52/66/110 51/65/109
s 11
f 49/74/120 52/73/119 46/80/133 44/62/134
s 10
f 41/76/116 42/71/115 58/81/135 59/82/136
s 11
f 42/71/117 49/74/120 57/83/137 58/81/138
s 13
f 49/74/139 50/77/140 60/84/141 57/83/142
s 12
f 50/77/123 41/76/122 59/82/143 60/84/144
s 11
f 58/81/138 57/83/137 55/59/145 54/58/146
s 10
f 59/82/136 58/81/135 54/58/147 53/57/148
s 12
f 60/84/144 59/82/143 53/57/149 56/60/150
s 13
f 57/83/142 60/84/141 56/60/151 55/59/152
s off
usemtl lambert4SG
f 61/85/153 62/86/154 64/87/155 63/88/156
s 14
usemtl lambert3SG
f 65/89/157 66/90/158 68/91/159 67/92/160
s off
f 101/93/161 102/94/162 103/95/163 104/96/164
s 15
f 77/97/165 78/98/166 79/99/167 80/100/168
s off
f 105/101/169 106/102/170 107/103/171 108/104/172
f 102/105/173 107/106/174 106/107/175 103/108/176
f 105/109/177 108/110/178 101/111/179 104/112/180
f 81/113/181 82/114/182 83/115/183 84/116/184
f 82/114/185 85/117/186 86/118/187 83/115/188
f 85/117/189 87/119/190 88/120/191 86/118/192
f 87/119/193 81/113/194 84/116/195 88/120/196
s 16
f 73/121/197 74/122/198 82/114/199 81/113/200
s 15
f 78/98/166 77/97/165 84/116/201 83/115/202
s 16
f 74/122/198 75/123/203 85/117/204 82/114/199
s 15
f 79/99/167 78/98/166 83/115/202 86/118/205
s 16
f 75/123/203 76/124/206 87/119/207 85/117/204
s 15
f 80/100/168 79/99/167 86/118/205 88/120/208
s 16
f 76/124/206 73/121/197 81/113/200 87/119/207
s 15
f 77/97/165 80/100/168 88/120/208 84/116/201
s off
f 94/125/209 93/126/210 95/127/211 96/128/212
f 97/129/213 94/130/214 96/131/215 98/132/216
f 98/132/217 99/133/218 100/134/219 97/135/220
f 95/136/221 93/137/222 100/138/223 99/133/224
s 17
f 90/139/225 89/140/226 93/126/227 94/125/228
s 14
f 66/141/158 65/142/157 96/128/229 95/127/230
s 17
f 91/143/231 90/144/225 94/130/228 97/129/232
s 14
f 65/89/157 67/92/160 98/132/233 96/131/229
f 67/92/160 68/91/159 99/133/234 98/132/233
s 17
f 92/145/235 91/146/231 97/135/232 100/134/236
f 89/147/226 92/148/235 100/138/236 93/137/227
s 14
f 68/91/159 66/90/158 95/136/230 99/133/234
s 17
f 91/146/231 92/145/235 102/94/237 101/93/238
s 18
f 70/149/239 69/150/240 104/96/241 103/95/242
f 71/151/243 72/152/244 106/102/245 105/101/246
s 17
f 89/140/226 90/139/225 108/104/247 107/103/248
f 92/148/235 89/147/226 107/106/248 102/105/237
s 18
f 72/153/244 70/154/239 103/108/242 106/107/245
s 17
f 90/144/225 91/143/231 101/111/238 108/110/247
s 18
f 69/155/240 71/156/243 105/109/246 104/112/241
s 16
f 111/157/249 110/158/250 113/159/251 112/160/252
f 110/158/250 109/161/253 114/162/254 113/159/251
s 20
f 69/150/255 70/149/256 112/160/257 115/163/258
s 16
f 70/149/259 72/152/260 111/157/249 112/160/252
s 21
f 72/152/261 71/151/262 118/164/263 111/157/264
s 16
f 71/151/265 69/150/266 115/163/267 118/164/268
f 114/162/254 109/161/253 75/123/203 74/122/198
s 20
f 117/165/269 114/162/270 74/122/271 73/121/272
s 16
f 120/166/273 117/165/274 73/121/197 76/124/206
s 21
f 109/161/275 120/166/276 76/124/277 75/123/278
s 20
f 112/160/257 113/159/279 116/167/280 115/163/258
f 113/159/279 114/162/270 117/165/269 116/167/280
s 16
f 115/163/267 116/167/281 119/168/282 118/164/268
f 116/167/281 117/165/274 120/166/273 119/168/282
s 21
f 109/161/275 110/158/283 119/168/284 120/166/276
f 110/158/283 111/157/264 118/164/263 119/168/284
